<svg width="186" height="140" viewBox="0 0 186 140" fill="none" xmlns="http://www.w3.org/2000/svg">
<path fill-rule="evenodd" clip-rule="evenodd" d="M162.795 42.9913C165.996 43.849 167.895 47.139 167.038 50.3398L151.509 108.295C150.651 111.496 147.361 113.396 144.16 112.538L92.9991 98.8294L97.8633 97.5265C102.113 96.3877 104.659 91.9786 103.52 87.7285L92.9998 48.4634L97.4911 31.7048C98.3488 28.504 101.639 26.6045 104.84 27.4622L162.795 42.9913ZM132.315 52.424L126.52 50.871L122.379 66.3259L106.924 62.1848L105.371 67.9803L120.826 72.1214L116.685 87.5762L122.48 89.1291L126.621 73.6743L142.076 77.8154L143.629 72.0199L128.174 67.8788L132.315 52.424Z" fill="#DCDDE0"/>
<path fill-rule="evenodd" clip-rule="evenodd" d="M79.2284 27.9798C83.3983 26.8625 87.7213 29.2919 88.9585 33.3979L89.0264 33.6367L103.52 87.7285C104.638 91.8984 102.208 96.2214 98.1021 97.4586L97.8634 97.5265L43.7716 112.02C39.6017 113.138 35.2787 110.708 34.0415 106.602L33.9736 106.364L19.4797 52.2717C18.3624 48.1018 20.7918 43.7788 24.8978 42.5416L25.1366 42.4737L79.2284 27.9798ZM73.1225 68.7748C72.1105 67.962 70.648 68.3087 70.087 69.4158L70.0191 69.5644L62.2128 88.3717L51.4441 80.6581C50.4151 79.9301 49.0326 80.2972 48.5123 81.3967L42.1741 96.6317C41.5345 98.1437 42.824 99.7297 44.3833 99.4277L44.5303 99.3938L90.8858 86.9728C92.4229 86.561 92.8791 84.5872 91.7088 83.528L91.5944 83.4315L73.1225 68.7748Z" fill="#0996B3"/>
<rect x="1" y="1.00012" width="184" height="138" stroke="#DCDDE0" stroke-width="2" stroke-dasharray="6 6"/>
</svg>
