<svg xmlns="http://www.w3.org/2000/svg">
  <symbol id="facebook" viewBox="0 0 512 512"><path d="M512 256C512 114.6 397.4 0 256 0S0 114.6 0 256C0 376 82.7 476.8 194.2 504.5V334.2H141.4V256h52.8V222.3c0-87.1 39.4-127.5 125-127.5c16.2 0 44.2 3.2 55.7 6.4V172c-6-.6-16.5-1-29.6-1c-42 0-58.2 15.9-58.2 57.2V256h83.6l-14.4 78.2H287V510.1C413.8 494.8 512 386.9 512 256h0z" fill="currentColor"/></symbol>
  <symbol id="google" viewBox="0 0 512 512"><path d="M488 261.8C488 403.3 391.1 504 248 504 110.8 504 0 393.2 0 256S110.8 8 248 8c66.8 0 123 24.5 166.3 64.9l-67.5 64.9C258.5 52.6 94.3 116.6 94.3 256c0 86.5 69.1 156.6 153.7 156.6 98.2 0 135-70.4 140.8-106.9H248v-85.3h236.1c2.3 12.7 3.9 24.9 3.9 41.4z" fill="currentColor"/></symbol>
  <symbol id="telegram" viewBox="0 0 512 512"><path d="M248 8C111 8 0 119 0 256S111 504 248 504 496 393 496 256 385 8 248 8zM363 176.7c-3.7 39.2-19.9 134.4-28.1 178.3-3.5 18.6-10.3 24.8-16.9 25.4-14.4 1.3-25.3-9.5-39.3-18.7-21.8-14.3-34.2-23.2-55.3-37.2-24.5-16.1-8.6-25 5.3-39.5 3.7-3.8 67.1-61.5 68.3-66.7 .2-.7 .3-3.1-1.2-4.4s-3.6-.8-5.1-.5q-3.3 .7-104.6 69.1-14.8 10.2-26.9 9.9c-8.9-.2-25.9-5-38.6-9.1-15.5-5-27.9-7.7-26.8-16.3q.8-6.7 18.5-13.7 108.4-47.2 144.6-62.3c68.9-28.6 83.2-33.6 92.5-33.8 2.1 0 6.6 .5 9.6 2.9a10.5 10.5 0 0 1 3.5 6.7A43.8 43.8 0 0 1 363 176.7z" fill="currentColor"/></symbol>
  <symbol id="tiktok" viewBox="0 0 512 512"><path d="M448 209.9a210.1 210.1 0 0 1 -122.8-39.3V349.4A162.6 162.6 0 1 1 185 188.3V278.2a74.6 74.6 0 1 0 52.2 71.2V0l88 0a121.2 121.2 0 0 0 1.9 22.2h0A122.2 122.2 0 0 0 381 102.4a121.4 121.4 0 0 0 67 20.1z" fill="currentColor"/></symbol>
  <symbol id="twitter" viewBox="0 0 512 512"><path d="M459.4 151.7c.3 4.5 .3 9.1 .3 13.6 0 138.7-105.6 298.6-298.6 298.6-59.5 0-114.7-17.2-161.1-47.1 8.4 1 16.6 1.3 25.3 1.3 49.1 0 94.2-16.6 130.3-44.8-46.1-1-84.8-31.2-98.1-72.8 6.5 1 13 1.6 19.8 1.6 9.4 0 18.8-1.3 27.6-3.6-48.1-9.7-84.1-52-84.1-103v-1.3c14 7.8 30.2 12.7 47.4 13.3-28.3-18.8-46.8-51-46.8-87.4 0-19.5 5.2-37.4 14.3-53 51.7 63.7 129.3 105.3 216.4 109.8-1.6-7.8-2.6-15.9-2.6-24 0-57.8 46.8-104.9 104.9-104.9 30.2 0 57.5 12.7 76.7 33.1 23.7-4.5 46.5-13.3 66.6-25.3-7.8 24.4-24.4 44.8-46.1 57.8 21.1-2.3 41.6-8.1 60.4-16.2-14.3 20.8-32.2 39.3-52.6 54.3z" fill="currentColor"/></symbol>

  <symbol id="whatsapp" viewBox="0 0 24 24"><path d="M17.472 14.382c-.297-.149-1.758-.867-2.03-.967-.273-.099-.471-.148-.67.15-.197.297-.767.966-.94 1.164-.173.199-.347.223-.644.075-.297-.15-1.255-.463-2.39-1.475-.883-.788-1.48-1.761-1.653-2.059-.173-.297-.018-.458.13-.606.134-.133.298-.347.446-.52.149-.174.198-.298.298-.497.099-.198.05-.371-.025-.52-.075-.149-.669-1.612-.916-2.207-.242-.579-.487-.5-.669-.51-.173-.008-.371-.01-.57-.01-.198 0-.52.074-.792.372-.272.297-1.04 1.016-1.04 2.479 0 1.462 1.065 2.875 1.213 3.074.149.198 2.096 3.2 5.077 4.487.709.306 1.262.489 1.694.625.712.227 1.36.195 1.871.118.571-.085 1.758-.719 2.006-1.413.248-.694.248-1.289.173-1.413-.074-.124-.272-.198-.57-.347m-5.421 7.403h-.004a9.87 9.87 0 01-5.031-1.378l-.361-.214-3.741.982.998-3.648-.235-.374a9.86 9.86 0 01-1.51-5.26c.001-5.45 4.436-9.884 9.888-9.884 2.64 0 5.122 1.03 6.988 2.898a9.825 9.825 0 012.893 6.994c-.003 5.45-4.437 9.884-9.885 9.884m8.413-18.297A11.815 11.815 0 0012.05 0C5.495 0 .16 5.335.157 11.892c0 2.096.547 4.142 1.588 5.945L.057 24l6.305-1.654a11.882 11.882 0 005.683 1.448h.005c6.554 0 11.89-5.335 11.893-11.893a11.821 11.821 0 00-3.48-8.413Z" fill="currentColor"/></symbol>
  <symbol id="calendar-days" viewBox="0 0 24 24" fill="none" stroke="currentColor" stroke-width="2" stroke-linecap="round" stroke-linejoin="round"><path d="M8 2v4"/><path d="M16 2v4"/><rect width="18" height="18" x="3" y="4" rx="2"/><path d="M3 10h18"/><path d="M8 14h.01"/><path d="M12 14h.01"/><path d="M16 14h.01"/><path d="M8 18h.01"/><path d="M12 18h.01"/><path d="M16 18h.01"/></symbol>
  <symbol id="phone" viewBox="0 0 24 24" fill="none" stroke="currentColor" stroke-width="2" stroke-linecap="round" stroke-linejoin="round"><path d="M13.832 16.568a1 1 0 0 0 1.213-.303l.355-.465A2 2 0 0 1 17 15h3a2 2 0 0 1 2 2v3a2 2 0 0 1-2 2A18 18 0 0 1 2 4a2 2 0 0 1 2-2h3a2 2 0 0 1 2 2v3a2 2 0 0 1-.8 1.6l-.468.351a1 1 0 0 0-.292 1.233 14 14 0 0 0 6.392 6.384"/></symbol>
  <symbol id="mail" viewBox="0 0 24 24" fill="none" stroke="currentColor" stroke-width="2" stroke-linecap="round" stroke-linejoin="round"><path d="m22 7-8.991 5.727a2 2 0 0 1-2.009 0L2 7"/><rect x="2" y="4" width="20" height="16" rx="2"/></symbol>
  <symbol id="eye" viewBox="0 0 24 24" fill="none" stroke="currentColor" stroke-width="2" stroke-linecap="round" stroke-linejoin="round"><path d="M2.062 12.348a1 1 0 0 1 0-.696 10.75 10.75 0 0 1 19.876 0 1 1 0 0 1 0 .696 10.75 10.75 0 0 1-19.876 0"/><circle cx="12" cy="12" r="3"/></symbol>
  <symbol id="eye-slash" viewBox="0 0 24 24" fill="none" stroke="currentColor" stroke-width="2" stroke-linecap="round" stroke-linejoin="round"><path d="M10.733 5.076a10.744 10.744 0 0 1 11.205 6.575 1 1 0 0 1 0 .696 10.747 10.747 0 0 1-1.444 2.49"/><path d="M14.084 14.158a3 3 0 0 1-4.242-4.242"/><path d="M17.479 17.499a10.75 10.75 0 0 1-15.417-5.151 1 1 0 0 1 0-.696 10.75 10.75 0 0 1 4.446-5.143"/><path d="m2 2 20 20"/></symbol>
  <symbol id="arrows-expand" viewBox="0 0 24 24" fill="none" stroke="currentColor" stroke-width="2" stroke-linecap="round" stroke-linejoin="round"><path d="m15 15 6 6"/><path d="m15 9 6-6"/><path d="M21 16v5h-5"/><path d="M21 8V3h-5"/><path d="M3 16v5h5"/><path d="m3 21 6-6"/><path d="M3 8V3h5"/><path d="M9 9 3 3"/></symbol>
  <symbol id="reload" viewBox="0 0 24 24" fill="none" stroke="currentColor" stroke-width="2" stroke-linecap="round" stroke-linejoin="round"><path d="M21 12a9 9 0 0 0-9-9 9.75 9.75 0 0 0-6.74 2.74L3 8"/><path d="M3 3v5h5"/><path d="M3 12a9 9 0 0 0 9 9 9.75 9.75 0 0 0 6.74-2.74L21 16"/><path d="M16 16h5v5"/></symbol>
  <symbol id="clock" viewBox="0 0 24 24" fill="none" stroke="currentColor" stroke-width="2" stroke-linecap="round" stroke-linejoin="round"><path d="M12 6v6l4 2"/><circle cx="12" cy="12" r="10"/></symbol>
  <symbol id="history" viewBox="0 0 24 24" fill="none" stroke="currentColor" stroke-width="2" stroke-linecap="round" stroke-linejoin="round"><path d="M3 12a9 9 0 1 0 9-9 9.75 9.75 0 0 0-6.74 2.74L3 8"/><path d="M3 3v5h5"/><path d="M12 7v5l4 2"/></symbol>
  <symbol id="settings" viewBox="0 0 24 24" fill="none" stroke="currentColor" stroke-width="2" stroke-linecap="round" stroke-linejoin="round"><path d="M9.671 4.136a2.34 2.34 0 0 1 4.659 0 2.34 2.34 0 0 0 3.319 1.915 2.34 2.34 0 0 1 2.33 4.033 2.34 2.34 0 0 0 0 3.831 2.34 2.34 0 0 1-2.33 4.033 2.34 2.34 0 0 0-3.319 1.915 2.34 2.34 0 0 1-4.659 0 2.34 2.34 0 0 0-3.32-1.915 2.34 2.34 0 0 1-2.33-4.033 2.34 2.34 0 0 0 0-3.831A2.34 2.34 0 0 1 6.35 6.051a2.34 2.34 0 0 0 3.319-1.915"/><circle cx="12" cy="12" r="3"/></symbol>
  <symbol id="trash" viewBox="0 0 24 24" fill="none" stroke="currentColor" stroke-width="2" stroke-linecap="round" stroke-linejoin="round"><path d="M10 11v6"/><path d="M14 11v6"/><path d="M19 6v14a2 2 0 0 1-2 2H7a2 2 0 0 1-2-2V6"/><path d="M3 6h18"/><path d="M8 6V4a2 2 0 0 1 2-2h4a2 2 0 0 1 2 2v2"/></symbol>
  <symbol id="xmark" viewBox="0 0 24 24" fill="none" stroke="currentColor" stroke-width="2" stroke-linecap="round" stroke-linejoin="round"><path d="M18 6 6 18"/><path d="m6 6 12 12"/></symbol>
  <symbol id="sliders" viewBox="0 0 24 24" fill="none" stroke="currentColor" stroke-width="2" stroke-linecap="round" stroke-linejoin="round"><path d="M14 17H5"/><path d="M19 7h-9"/><circle cx="17" cy="17" r="3"/><circle cx="7" cy="7" r="3"/></symbol>
  <symbol id="bookmark" viewBox="0 0 24 24" fill="none" stroke="currentColor" stroke-width="2" stroke-linecap="round" stroke-linejoin="round"><path d="m19 21-7-4-7 4V5a2 2 0 0 1 2-2h10a2 2 0 0 1 2 2v16z"/></symbol>
  <symbol id="bookmark-plus" viewBox="0 0 24 24" fill="none" stroke="currentColor" stroke-width="2" stroke-linecap="round" stroke-linejoin="round"><path d="m19 21-7-4-7 4V5a2 2 0 0 1 2-2h10a2 2 0 0 1 2 2v16z"/><line x1="12" x2="12" y1="7" y2="13"/><line x1="15" x2="9" y1="10" y2="10"/></symbol>
  <symbol id="unlock" viewBox="0 0 24 24" fill="none" stroke="currentColor" stroke-width="2" stroke-linecap="round" stroke-linejoin="round"><circle cx="12" cy="16" r="1"/><rect width="18" height="12" x="3" y="10" rx="2"/><path d="M7 10V7a5 5 0 0 1 9.33-2.5"/></symbol>
  <symbol id="share" viewBox="0 0 24 24" fill="none" stroke="currentColor" stroke-width="2" stroke-linecap="round" stroke-linejoin="round"><path d="M12 2v13"/><path d="m16 6-4-4-4 4"/><path d="M4 12v8a2 2 0 0 0 2 2h12a2 2 0 0 0 2-2v-8"/></symbol>
  <symbol id="angle-left" viewBox="0 0 24 24" fill="none" stroke="currentColor" stroke-width="2" stroke-linecap="round" stroke-linejoin="round"><path d="m15 18-6-6 6-6"/></symbol>
  <symbol id="angle-right" viewBox="0 0 24 24" fill="none" stroke="currentColor" stroke-width="2" stroke-linecap="round" stroke-linejoin="round"><path d="m9 18 6-6-6-6"/></symbol>
  <symbol id="angle-up" viewBox="0 0 24 24" fill="none" stroke="currentColor" stroke-width="2" stroke-linecap="round" stroke-linejoin="round"><path d="m18 15-6-6-6 6"/></symbol>
  <symbol id="angle-down" viewBox="0 0 24 24" fill="none" stroke="currentColor" stroke-width="2" stroke-linecap="round" stroke-linejoin="round"><path d="m6 9 6 6 6-6"/></symbol>
  <symbol id="order" viewBox="0 0 24 24" fill="none" stroke="currentColor" stroke-width="2" stroke-linecap="round" stroke-linejoin="round"><circle cx="8" cy="21" r="1"/><circle cx="19" cy="21" r="1"/><path d="M2.05 2.05h2l2.66 12.42a2 2 0 0 0 2 1.58h9.78a2 2 0 0 0 1.95-1.57l1.65-7.43H5.12"/></symbol>
  <symbol id="edit" viewBox="0 0 24 24" fill="none" stroke="currentColor" stroke-width="2" stroke-linecap="round" stroke-linejoin="round"><path d="M12 3H5a2 2 0 0 0-2 2v14a2 2 0 0 0 2 2h14a2 2 0 0 0 2-2v-7"/><path d="M18.375 2.625a1 1 0 0 1 3 3l-9.013 9.014a2 2 0 0 1-.853.505l-2.873.84a.5.5 0 0 1-.62-.62l.84-2.873a2 2 0 0 1 .506-.852z"/></symbol>
  <symbol id="loading" viewBox="0 0 24 24" fill="none" stroke="currentColor" stroke-width="2" stroke-linecap="round" stroke-linejoin="round"><path d="M12 2v4"/><path d="m16.2 7.8 2.9-2.9"/><path d="M18 12h4"/><path d="m16.2 16.2 2.9 2.9"/><path d="M12 18v4"/><path d="m4.9 19.1 2.9-2.9"/><path d="M2 12h4"/><path d="m4.9 4.9 2.9 2.9"/></symbol>
  <symbol id="circle-plus" viewBox="0 0 24 24" fill="none" stroke="currentColor" stroke-width="2" stroke-linecap="round" stroke-linejoin="round"><circle cx="12" cy="12" r="10"/><path d="M8 12h8"/><path d="M12 8v8"/></symbol>
  <symbol id="heart" viewBox="0 0 24 24" fill="none" stroke="currentColor" stroke-width="2" stroke-linecap="round" stroke-linejoin="round"><path d="M2 9.5a5.5 5.5 0 0 1 9.591-3.676.56.56 0 0 0 .818 0A5.49 5.49 0 0 1 22 9.5c0 2.29-1.5 4-3 5.5l-5.492 5.313a2 2 0 0 1-3 .019L5 15c-1.5-1.5-3-3.2-3-5.5"/></symbol>
  <symbol id="heart-filled" viewBox="0 0 24 24" fill="currentColor" stroke="currentColor" stroke-width="2" stroke-linecap="round" stroke-linejoin="round"><path d="M2 9.5a5.5 5.5 0 0 1 9.591-3.676.56.56 0 0 0 .818 0A5.49 5.49 0 0 1 22 9.5c0 2.29-1.5 4-3 5.5l-5.492 5.313a2 2 0 0 1-3 .019L5 15c-1.5-1.5-3-3.2-3-5.5"/></symbol>
  <symbol id="arrow-right" viewBox="0 0 24 24" fill="none" stroke="currentColor" stroke-width="2" stroke-linecap="round" stroke-linejoin="round"><path d="M5 12h14"/><path d="m12 5 7 7-7 7"/></symbol>
  <symbol id="arrow-left" viewBox="0 0 24 24" fill="none" stroke="currentColor" stroke-width="2" stroke-linecap="round" stroke-linejoin="round"><path d="m12 19-7-7 7-7"/><path d="M19 12H5"/></symbol>
  <symbol id="arrow-up" viewBox="0 0 24 24" fill="none" stroke="currentColor" stroke-width="2" stroke-linecap="round" stroke-linejoin="round"><path d="m5 12 7-7 7 7"/><path d="M12 19V5"/></symbol>
  <symbol id="arrow-down" viewBox="0 0 24 24" fill="none" stroke="currentColor" stroke-width="2" stroke-linecap="round" stroke-linejoin="round"><path d="M12 5v14"/><path d="m19 12-7 7-7-7"/></symbol>
  <symbol id="logout" viewBox="0 0 24 24" fill="none" stroke="currentColor" stroke-width="2" stroke-linecap="round" stroke-linejoin="round"><path d="m16 17 5-5-5-5"/><path d="M21 12H9"/><path d="M9 21H5a2 2 0 0 1-2-2V5a2 2 0 0 1 2-2h4"/></symbol>
  <symbol id="user" viewBox="0 0 24 24" fill="none" stroke="currentColor" stroke-width="2" stroke-linecap="round" stroke-linejoin="round"><path d="M19 21v-2a4 4 0 0 0-4-4H9a4 4 0 0 0-4 4v2"/><circle cx="12" cy="7" r="4"/></symbol>
  <symbol id="user-circle" viewBox="0 0 24 24" fill="none" stroke="currentColor" stroke-width="2" stroke-linecap="round" stroke-linejoin="round"><path d="M18 20a6 6 0 0 0-12 0"/><circle cx="12" cy="10" r="4"/><circle cx="12" cy="12" r="10"/></symbol>
  <symbol id="check" viewBox="0 0 24 24" fill="none" stroke="currentColor" stroke-width="2" stroke-linecap="round" stroke-linejoin="round"><path d="M20 6 9 17l-5-5"/></symbol>
  <symbol id="flip-x" viewBox="0 0 24 24" fill="none" stroke="currentColor" stroke-width="2" stroke-linecap="round" stroke-linejoin="round"><path d="M8 3H5a2 2 0 0 0-2 2v14c0 1.1.9 2 2 2h3"/><path d="M16 3h3a2 2 0 0 1 2 2v14a2 2 0 0 1-2 2h-3"/><path d="M12 20v2"/><path d="M12 14v2"/><path d="M12 8v2"/><path d="M12 2v2"/></symbol>
  <symbol id="flip-y" viewBox="0 0 24 24" fill="none" stroke="currentColor" stroke-width="2" stroke-linecap="round" stroke-linejoin="round"><path d="M21 8V5a2 2 0 0 0-2-2H5a2 2 0 0 0-2 2v3"/><path d="M21 16v3a2 2 0 0 1-2 2H5a2 2 0 0 1-2-2v-3"/><path d="M4 12H2"/><path d="M10 12H8"/><path d="M16 12h-2"/><path d="M22 12h-2"/></symbol>
  <symbol id="zoom-plus" viewBox="0 0 24 24" fill="none" stroke="currentColor" stroke-width="2" stroke-linecap="round" stroke-linejoin="round"><circle cx="11" cy="11" r="8"/><line x1="21" x2="16.65" y1="21" y2="16.65"/><line x1="11" x2="11" y1="8" y2="14"/><line x1="8" x2="14" y1="11" y2="11"/></symbol>
  <symbol id="zoom-minus" viewBox="0 0 24 24" fill="none" stroke="currentColor" stroke-width="2" stroke-linecap="round" stroke-linejoin="round"><circle cx="11" cy="11" r="8"/><line x1="21" x2="16.65" y1="21" y2="16.65"/><line x1="8" x2="14" y1="11" y2="11"/></symbol>
  <symbol id="file" viewBox="0 0 24 24" fill="none" stroke="currentColor" stroke-width="2" stroke-linecap="round" stroke-linejoin="round"><path d="M6 22a2 2 0 0 1-2-2V4a2 2 0 0 1 2-2h8a2.4 2.4 0 0 1 1.704.706l3.588 3.588A2.4 2.4 0 0 1 20 8v12a2 2 0 0 1-2 2z"/><path d="M14 2v5a1 1 0 0 0 1 1h5"/><path d="M10 9H8"/><path d="M16 13H8"/><path d="M16 17H8"/></symbol>
  <symbol id="favorites" viewBox="0 0 24 24" fill="none" stroke="currentColor" stroke-width="2" stroke-linecap="round" stroke-linejoin="round"><path d="M2 9.5a5.5 5.5 0 0 1 9.591-3.676.56.56 0 0 0 .818 0A5.49 5.49 0 0 1 22 9.5c0 2.29-1.5 4-3 5.5l-5.492 5.313a2 2 0 0 1-3 .019L5 15c-1.5-1.5-3-3.2-3-5.5"/></symbol>
  <symbol id="seen" viewBox="0 0 24 24" fill="none" stroke="currentColor" stroke-width="2" stroke-linecap="round" stroke-linejoin="round"><path d="M2.062 12.348a1 1 0 0 1 0-.696 10.75 10.75 0 0 1 19.876 0 1 1 0 0 1 0 .696 10.75 10.75 0 0 1-19.876 0"/><circle cx="12" cy="12" r="3"/></symbol>
  <symbol id="exchange" viewBox="0 0 24 24" fill="none" stroke="currentColor" stroke-width="2" stroke-linecap="round" stroke-linejoin="round"><path d="M21 12a9 9 0 0 0-9-9 9.75 9.75 0 0 0-6.74 2.74L3 8"/><path d="M3 3v5h5"/><path d="M3 12a9 9 0 0 0 9 9 9.75 9.75 0 0 0 6.74-2.74L21 16"/><path d="M16 16h5v5"/></symbol>
  <symbol id="bargaining" viewBox="0 0 24 24" fill="none" stroke="currentColor" stroke-width="2" stroke-linecap="round" stroke-linejoin="round"><circle cx="12" cy="12" r="10"/><path d="M8 12h8"/><path d="M12 8v8"/></symbol>
  <symbol id="questions" viewBox="0 0 24 24" fill="none" stroke="currentColor" stroke-width="2" stroke-linecap="round" stroke-linejoin="round" class="lucide lucide-circle-question-mark-icon lucide-circle-question-mark"><circle cx="12" cy="12" r="10"/><path d="M9.09 9a3 3 0 0 1 5.83 1c0 2-3 3-3 3"/><path d="M12 17h.01"/></symbol>
  <symbol id="certificated" viewBox="0 0 24 24" fill="none" stroke="currentColor" stroke-width="2" stroke-linecap="round" stroke-linejoin="round"><path d="M16 10h2"/><path d="M16 14h2"/><path d="M6.17 15a3 3 0 0 1 5.66 0"/><circle cx="9" cy="11" r="2"/><rect x="2" y="5" width="20" height="14" rx="2"/></symbol>
  <symbol id="warning" viewBox="0 0 24 24" fill="none" stroke="currentColor" stroke-width="2" stroke-linecap="round" stroke-linejoin="round"><circle cx="12" cy="12" r="10"/><line x1="12" x2="12" y1="8" y2="12"/><line x1="12" x2="12.01" y1="16" y2="16"/></symbol>
  <symbol id="success" viewBox="0 0 24 24" fill="none" stroke="currentColor" stroke-width="2" stroke-linecap="round" stroke-linejoin="round"><circle cx="12" cy="12" r="10"/><path d="m9 12 2 2 4-4"/></symbol>
  <symbol id="dots-vertical" viewBox="0 0 24 24" fill="none" stroke="currentColor" stroke-width="2" stroke-linecap="round" stroke-linejoin="round"><circle cx="12" cy="12" r="1"/><circle cx="12" cy="5" r="1"/><circle cx="12" cy="19" r="1"/></symbol>
  <symbol id="dots-horizontal" viewBox="0 0 24 24" fill="none" stroke="currentColor" stroke-width="2" stroke-linecap="round" stroke-linejoin="round"><circle cx="12" cy="12" r="1"/><circle cx="19" cy="12" r="1"/><circle cx="5" cy="12" r="1"/></symbol>
  <symbol id="discount" viewBox="0 0 24 24" fill="none" stroke="currentColor" stroke-width="2" stroke-linecap="round" stroke-linejoin="round"><path d="M16 17h6v-6"/><path d="m22 17-8.5-8.5-5 5L2 7"/></symbol>

  <symbol id="icon-home" viewBox="0 0 40 40" fill="none"><path d="M35.5 36.5V20.5H38.5L21.4329 2.97167C20.6478 2.16531 19.3522 2.16532 18.5671 2.97167L1.5 20.5H4.5V36.5" stroke="currentColor" stroke-width="1.5" stroke-linecap="round" stroke-linejoin="round"/><path d="M2.5 36.5H37.5" stroke="currentColor" stroke-width="1.5" stroke-linecap="round" stroke-linejoin="round" /><path d="M24.5 36.5V24.5C24.5 23.9477 24.0523 23.5 23.5 23.5H16.5C15.9477 23.5 15.5 23.9477 15.5 24.5V36.5" stroke="currentColor" stroke-width="1.5" stroke-linecap="round" stroke-linejoin="round"/><path d="M7 20L19.2929 7.70711C19.6834 7.31658 20.3166 7.31658 20.7071 7.70711L33 20" stroke="currentColor" stroke-width="1.5" stroke-linecap="round" stroke-linejoin="round"/></symbol>
  <symbol id="icon-find" viewBox="0 0 40 40" fill="none"><path d="M28.5 2.5L29.9285 5.19478L32.3285 8.74629C32.4403 8.91164 32.5 9.10664 32.5 9.30621V15.5C32.5 16.6046 31.6046 17.5 30.5 17.5H9.5C8.39543 17.5 7.5 16.6046 7.5 15.5V9.30193C7.5 9.10503 7.55813 8.91252 7.66709 8.74852L10.0283 5.19478L11.5 2.5" stroke="currentColor" stroke-width="1.5" stroke-linecap="round" stroke-linejoin="round" /><path d="M12.5 18.0222V19.5C12.5 20.0523 12.0523 20.5 11.5 20.5L8.4684 20.5001C7.91302 20.5001 7.46403 20.0475 7.46842 19.4922L7.5 15.5" stroke="currentColor" stroke-width="1.5" stroke-miterlimit="10" stroke-linecap="round" stroke-linejoin="round" /><path d="M27.4604 18.0222V19.5C27.4604 20.0523 27.9082 20.5 28.4604 20.5L31.5 20.5001C32.0523 20.5001 32.5 20.0524 32.5 19.5001L32.5 15.5" stroke="currentColor" stroke-width="1.5" stroke-miterlimit="10" stroke-linecap="round" stroke-linejoin="round" /><path d="M25.3827 11.4648H15L15.7736 13.8129C15.9087 14.223 16.2917 14.5 16.7234 14.5H23.7494C24.1941 14.5 24.5854 14.2063 24.7096 13.7793L25.3827 11.4648Z" stroke="currentColor" stroke-width="1.5" stroke-miterlimit="10" stroke-linecap="round" stroke-linejoin="round" /><path d="M9.5 10.5L12.5 11" stroke="currentColor" stroke-width="1.5" stroke-miterlimit="10" stroke-linecap="round" stroke-linejoin="round"></path><path d="M30.5 10.5L27.5 11" stroke="currentColor" stroke-width="1.5" stroke-miterlimit="10" stroke-linecap="round" stroke-linejoin="round" /><path d="M30 6C30 6 28 7.5 24.9894 7.5C21.6648 7.5 18.3401 7.5 15.0155 7.5C12 7.5 10 6 10 6" stroke="currentColor" stroke-width="1.5" stroke-miterlimit="10" stroke-linecap="round" stroke-linejoin="round" /><path d="M2.5 2.5V22.5C2.5 23.6046 3.39543 24.5 4.5 24.5H35.5C36.6046 24.5 37.5 23.6046 37.5 22.5V2.5" stroke="currentColor" stroke-width="1.5" stroke-miterlimit="10" stroke-linecap="round" stroke-linejoin="round" /><path d="M11 37.5L11.9472 35.6056C12.286 34.928 12.9786 34.5 13.7361 34.5H26.264C27.0215 34.5 27.714 34.928 28.0528 35.6056L29 37.5" stroke="currentColor" stroke-width="1.5" stroke-linecap="round" stroke-linejoin="round" /><path d="M2.5 37.5V32.5C2.5 31.3954 3.39543 30.5 4.5 30.5H35.5C36.6046 30.5 37.5 31.3954 37.5 32.5V37.5" stroke="currentColor" stroke-width="1.5" stroke-miterlimit="10" stroke-linecap="round" stroke-linejoin="round" /></symbol>
  <symbol id="engine" viewBox="0 0 24 24" fill="none"><path stroke="currentColor" stroke-linecap="round" stroke-linejoin="round" stroke-width="2" d="M22 9V12M22 21V18M22 12H18V9L16.2929 7.29289C16.1054 7.10536 15.851 7 15.5858 7H7C6.44772 7 6 7.44771 6 8V17C6 17.5523 6.44772 18 7 18H9.16667L11.6074 21H18V18H22M22 12V18"/><path stroke="currentColor" stroke-linecap="round" stroke-width="2" d="M2 9V16"/><path stroke="currentColor" stroke-linecap="round" stroke-linejoin="round" stroke-width="2" d="M8 3H14"/></symbol>
  <symbol id="calendar" viewBox="0 0 24 24" fill="none"><path stroke="currentColor" stroke-linecap="round" stroke-linejoin="round" stroke-width="2" d="M19 4H5C3.89543 4 3 4.89543 3 6V20C3 21.1046 3.89543 22 5 22H19C20.1046 22 21 21.1046 21 20V6C21 4.89543 20.1046 4 19 4ZM16 2V6M8 2V6M3 10H21"/></symbol>
  <symbol id="road" viewBox="0 0 24 24" fill="none"><path stroke="currentColor" stroke-linecap="round" stroke-linejoin="round" stroke-width="2" d="M12 20V15M12 11V9M12 5V4M5 3L2 21M19 3L22 21"/></symbol>
  <symbol id="transmission" viewBox="0 0 24 24" fill="none"><path stroke="currentColor" stroke-width="2" d="M5 7C6.10457 7 7 6.10457 7 5C7 3.89543 6.10457 3 5 3C3.89543 3 3 3.89543 3 5C3 6.10457 3.89543 7 5 7ZM5 7V12M12 17C10.8954 17 10 17.8954 10 19C10 20.1046 10.8954 21 12 21C13.1046 21 14 20.1046 14 19C14 17.8954 13.1046 17 12 17ZM12 17V7M5 17C3.89543 17 3 17.8954 3 19C3 20.1046 3.89543 21 5 21C6.10457 21 7 20.1046 7 19C7 17.8954 6.10457 17 5 17ZM5 17V12M12 7C13.1046 7 14 6.10457 14 5C14 3.89543 13.1046 3 12 3C10.8954 3 10 3.89543 10 5C10 6.10457 10.8954 7 12 7ZM19 7C20.1046 7 21 6.10457 21 5C21 3.89543 20.1046 3 19 3C17.8954 3 17 3.89543 17 5C17 6.10457 17.8954 7 19 7ZM19 7V11C19 11.5523 18.5523 12 18 12H5"/></symbol>
  <symbol id="petrol" viewBox="0 0 24 24" fill="none"><path stroke="currentColor" stroke-linecap="round" stroke-linejoin="round" stroke-width="2" d="M12.56 6.07512C13.2477 4.97624 13.7353 3.76416 14 2.49512C14.5 4.99512 16 7.39512 18 8.99512C20 10.5951 21 12.4951 21 14.4951C21.0057 15.8774 20.6009 17.2303 19.8368 18.3822C19.0727 19.5341 17.9838 20.4333 16.7081 20.9656C15.4324 21.4979 14.0274 21.6395 12.6712 21.3724C11.8447 21.2096 10.2969 20.7305 9.08984 19.4648M7 15.7758C9.2 15.7758 11 13.9458 11 11.7258C11 10.5658 10.43 9.46584 9.29 8.53584C8.15 7.60584 7.29 6.22584 7 4.77584C6.71 6.22584 5.86 7.61584 4.71 8.53584C3.56 9.45584 3 10.5758 3 11.7258C3 13.9458 4.8 15.7758 7 15.7758Z"/></symbol>
  <symbol id="hybrid" viewBox="0 0 24 24" fill="none"><g clip-path="url(#clip0_3461_12327)"><path fill="currentColor" d="M16.8558 2L17.7919 2.35192C17.9074 2.04478 17.8648 1.70053 17.678 1.43076C17.4912 1.16098 17.184 1 16.8558 1V2ZM14.6 8L13.664 7.64808C13.5485 7.95522 13.591 8.29947 13.7778 8.56924C13.9646 8.83902 14.2719 9 14.6 9V8ZM10.1 22L9.15323 21.6781C9.00267 22.1209 9.17916 22.6089 9.57814 22.853C9.97712 23.0971 10.492 23.032 10.8177 22.6964L10.1 22ZM5 3.2L5.98058 3.00388C5.8871 2.53646 5.47668 2.2 5 2.2C4.52332 2.2 4.1129 2.53646 4.01942 3.00388L5 3.2ZM13.16 13L14.1068 13.3219C14.2106 13.0166 14.1608 12.6799 13.973 12.4177C13.7852 12.1555 13.4825 12 13.16 12V13ZM12.5 12C11.9477 12 11.5 12.4477 11.5 13C11.5 13.5523 11.9477 14 12.5 14V12ZM8.70557 3.55279C8.45858 4.04676 8.65881 4.64744 9.15279 4.89443C9.64677 5.14142 10.2474 4.94119 10.4944 4.44721L8.70557 3.55279ZM22.8252 8.11833L23.4712 7.355L22.8252 8.11833ZM22.3673 9.35709L21.6496 8.66073L22.3673 9.35709ZM23.0011 8.53397L23.9988 8.6019L23.0011 8.53397ZM10.746 2.02733L11.0721 2.97267L10.746 2.02733ZM10.5592 2.14279L9.85944 1.42837L10.5592 2.14279ZM11.0944 3H16.8558V1H11.0944V3ZM15.9198 1.64808L13.664 7.64808L15.536 8.35192L17.7919 2.35192L15.9198 1.64808ZM14.6 9H21.7931V7H14.6V9ZM21.6496 8.66073L9.38231 21.3036L10.8177 22.6964L23.085 10.0535L21.6496 8.66073ZM5 15.2C7.76515 15.2 10 12.9093 10 10.15H8C8 11.8307 6.63485 13.2 5 13.2V15.2ZM10 10.15C10 8.62598 9.24072 7.26083 7.92213 6.18513L6.65787 7.73487C7.61928 8.51917 8 9.35402 8 10.15H10ZM7.92213 6.18513C6.95318 5.39468 6.22292 4.21559 5.98058 3.00388L4.01942 3.39612C4.35708 5.08441 5.34682 6.66533 6.65787 7.73487L7.92213 6.18513ZM4.01942 3.00388C3.77579 4.22205 3.05247 5.4054 2.0853 6.17913L3.3347 7.74087C4.66753 6.6746 5.64421 5.07795 5.98058 3.39612L4.01942 3.00388ZM2.0853 6.17913C0.74214 7.25366 0 8.64396 0 10.15H2C2 9.35604 2.37786 8.50634 3.3347 7.74087L2.0853 6.17913ZM0 10.15C0 12.9093 2.23485 15.2 5 15.2V13.2C3.36515 13.2 2 11.8307 2 10.15H0ZM11.0468 22.3219L14.1068 13.3219L12.2132 12.6781L9.15323 21.6781L11.0468 22.3219ZM13.16 12H12.5V14H13.16V12ZM10.4944 4.44721L11.2733 2.88944L9.48446 1.99502L8.70557 3.55279L10.4944 4.44721ZM21.7931 9C21.9443 9 22.0655 9.00003 22.1694 9.00172C22.2742 9.00342 22.3436 9.00662 22.3912 9.01085C22.4415 9.01533 22.4385 9.01868 22.4077 9.00964C22.373 8.9995 22.2802 8.96716 22.1792 8.88167L23.4712 7.355C23.1466 7.08027 22.7591 7.03569 22.5685 7.01873C22.3473 6.99904 22.0707 7 21.7931 7V9ZM23.085 10.0535C23.2783 9.85423 23.4715 9.65644 23.6115 9.48397C23.732 9.33537 23.9699 9.02618 23.9988 8.6019L22.0034 8.46603C22.0124 8.334 22.0538 8.24488 22.0706 8.21297C22.0856 8.18452 22.0901 8.18473 22.0583 8.22397C22.0282 8.26103 21.9821 8.31308 21.9104 8.38947C21.8393 8.46522 21.7549 8.55225 21.6496 8.66073L23.085 10.0535ZM22.1792 8.88167C22.0579 8.77896 21.9926 8.62466 22.0034 8.46603L23.9988 8.6019C24.0312 8.12603 23.8353 7.66312 23.4712 7.355L22.1792 8.88167ZM11.0944 1C10.9874 1 10.6954 0.986953 10.4199 1.08198L11.0721 2.97267C11.0542 2.97883 11.0369 2.98391 11.0205 2.98804C11.0042 2.99215 10.9898 2.99504 10.978 2.99708C10.9551 3.00101 10.9419 3.00166 10.9449 3.00148C10.946 3.0014 10.9499 3.00119 10.9573 3.00096C10.9648 3.00072 10.9746 3.00051 10.9876 3.00035C11.0007 3.00019 11.0158 3.0001 11.0339 3.00005C11.0521 3 11.0717 3 11.0944 3V1ZM11.2733 2.88944C11.2835 2.8691 11.2923 2.85155 11.3004 2.8353C11.3086 2.81915 11.3154 2.80571 11.3214 2.79409C11.3274 2.78248 11.3319 2.77381 11.3355 2.76726C11.339 2.76071 11.3409 2.75735 11.3415 2.75632C11.343 2.75375 11.3365 2.76529 11.3228 2.784C11.3156 2.79369 11.3066 2.80523 11.2957 2.81798C11.2846 2.83081 11.2724 2.844 11.2589 2.85721L9.85944 1.42837C9.65123 1.6323 9.5323 1.89933 9.48446 1.99502L11.2733 2.88944ZM10.4199 1.08198C10.2097 1.15448 10.0183 1.2728 9.85944 1.42837L11.2589 2.85721C11.2059 2.90907 11.1421 2.94851 11.0721 2.97267L10.4199 1.08198Z"/></g><defs><clipPath id="clip0_3461_12327"><rect width="24" height="24" fill="currentColor"/></clipPath></defs></symbol>
  <symbol id="electric" viewBox="0 0 24 24" fill="none"><path stroke="currentColor" stroke-linecap="round" stroke-linejoin="round" stroke-width="2" d="M14.2495 2H8.49395C8.31447 2 8.22473 2 8.14551 2.02733C8.07544 2.05149 8.01163 2.09093 7.95868 2.14279C7.89881 2.20143 7.85868 2.2817 7.77841 2.44223L3.57841 10.8422C3.38673 11.2256 3.29089 11.4173 3.31391 11.5731C3.33401 11.7091 3.40927 11.8309 3.52197 11.9097C3.65104 12 3.86534 12 4.29395 12H10.4995L7.49953 22L19.6926 9.35531C20.104 8.9287 20.3097 8.7154 20.3217 8.53288C20.3321 8.37446 20.2667 8.22049 20.1454 8.11803C20.0057 8 19.7094 8 19.1167 8H11.9995L14.2495 2Z"/></symbol>
  <symbol id="bell" viewBox="0 0 24 24" fill="none"><path stroke="currentColor" stroke-linecap="round" stroke-linejoin="round" stroke-width="2" d="M6 8C6 6.4087 6.63214 4.88258 7.75736 3.75736 8.88258 2.63214 10.4087 2 12 2 13.5913 2 15.1174 2.63214 16.2426 3.75736 17.3679 4.88258 18 6.4087 18 8 18 15 21 17 21 17H3C3 17 6 15 6 8ZM10.3 21C10.4674 21.3044 10.7134 21.5583 11.0125 21.7352 11.3115 21.912 11.6526 22.0053 12 22.0053 12.3474 22.0053 12.6885 21.912 12.9875 21.7352 13.2866 21.5583 13.5326 21.3044 13.7 21"/></symbol>
  <symbol id="image" viewBox="0 0 24 24" fill="none"><path d="M1.5 8C1.5 6.61929 2.61929 5.5 4 5.5L16 5.5C17.3807 5.5 18.5 6.61929 18.5 8V18C18.5 19.3807 17.3807 20.5 16 20.5H4C2.61929 20.5 1.5 19.3807 1.5 18V8Z" stroke="currentColor" stroke-width="1.5" stroke-linecap="round" stroke-linejoin="round" /><path d="M4.5 3.5V3.5C4.5 2.39543 5.39543 1.5 6.5 1.5H20C21.3807 1.5 22.5 2.61929 22.5 4V15.5C22.5 16.6046 21.6046 17.5 20.5 17.5V17.5" stroke="currentColor" stroke-width="1.5" stroke-linecap="round" stroke-linejoin="round" /><path d="M1.5 17L5.06747 11.4762C5.83417 10.289 7.55682 10.2499 8.37663 11.401L11.1495 15.2946C11.512 15.8035 12.2471 15.8591 12.682 15.4106L13.2896 14.784C14.0525 13.997 15.3067 13.9708 16.1019 14.7252L18.5 17" stroke="currentColor" stroke-width="1.5" stroke-linecap="round" stroke-linejoin="round" /><circle cx="13.5" cy="9.5" r="1.5" fill="currentColor" /></symbol>
  <symbol id="location" viewBox="0 0 24 24" fill="none"><path stroke="currentColor" stroke-linecap="round" stroke-linejoin="round" stroke-width="2" d="M20 10C20 16 12 22 12 22C12 22 4 16 4 10C4 7.87827 4.84285 5.84344 6.34315 4.34315C7.84344 2.84285 9.87827 2 12 2C14.1217 2 16.1566 2.84285 17.6569 4.34315C19.1571 5.84344 20 7.87827 20 10Z"/><path stroke="currentColor" stroke-linecap="round" stroke-linejoin="round" stroke-width="2" d="M12 13C13.6569 13 15 11.6569 15 10C15 8.34315 13.6569 7 12 7C10.3431 7 9 8.34315 9 10C9 11.6569 10.3431 13 12 13Z"/></symbol>
  <symbol id="emissions" viewBox="0 0 24 24" fill="none"><path stroke="currentColor" stroke-linecap="round" stroke-linejoin="round" stroke-width="2" d="M2.06321 9.08256C2.20287 8.02962 2.58031 7.02226 3.16694 6.1368C3.75358 5.25133 4.53403 4.51098 5.44918 3.97182C6.36433 3.43265 7.39018 3.10882 8.44902 3.02484C9.50786 2.94087 10.5719 3.09895 11.5606 3.48712C12.5493 3.8753 13.4367 4.48337 14.1556 5.2653C14.8745 6.04723 15.406 6.9825 15.7099 8.00026H17.4998C18.4654 8.00015 19.4053 8.31059 20.1808 8.8857C20.9564 9.46082 21.5264 10.2701 21.8066 11.1941C22.0869 12.118 22.0625 13.1076 21.7372 14.0166M19.5001 18C19.5 17.25 20.25 16.5 21.0001 16.5C21.7502 16.5 22.5 16.939 22.5 18C22.5 19.5 19.5001 20.55 19.5001 21.75H22.5001M7.90165 13.0983C7.3772 12.5739 6.70902 12.2167 5.98159 12.0721C5.25416 11.9274 4.50016 12.0016 3.81494 12.2855C3.12971 12.5693 2.54404 13.0499 2.13199 13.6666C1.71993 14.2833 1.5 15.0083 1.5 15.75C1.5 16.4917 1.71993 17.2167 2.13199 17.8334C2.54404 18.4501 3.12971 18.9307 3.81494 19.2145C4.50016 19.4984 5.25416 19.5726 5.98159 19.4279C6.70902 19.2832 7.3772 18.9261 7.90165 18.4017M16.1517 13.0983C16.4999 13.4466 16.7761 13.86 16.9645 14.3149C17.153 14.7699 17.25 15.2575 17.25 15.75C17.25 16.2425 17.153 16.7301 16.9645 17.1851C16.7761 17.64 16.4999 18.0534 16.1517 18.4017C15.8034 18.7499 15.39 19.0261 14.9351 19.2145C14.4801 19.403 13.9925 19.5 13.5 19.5C13.0075 19.5 12.5199 19.403 12.0649 19.2145C11.61 19.0261 11.1966 18.7499 10.8483 18.4017C10.5001 18.0534 10.2239 17.64 10.0355 17.1851C9.847 16.7301 9.75 16.2425 9.75 15.75C9.75 15.2575 9.847 14.7699 10.0355 14.3149C10.2239 13.86 10.5001 13.4466 10.8483 13.0983C11.1966 12.7501 11.61 12.4739 12.0649 12.2855C12.5199 12.097 13.0075 12 13.5 12C13.9925 12 14.4801 12.097 14.9351 12.2855C15.39 12.4739 15.8034 12.7501 16.1517 13.0983Z"/></symbol>
  <symbol id="drive" viewBox="0 0 24 24" fill="none"><path stroke="currentColor" stroke-linecap="round" stroke-width="2" d="M4 12H20M19 8V16M19 8H20.5C21.3284 8 22 7.32843 22 6.5V6.5C22 5.67157 21.3284 5 20.5 5H17.5C16.6716 5 16 5.67157 16 6.5V6.5C16 7.32843 16.6716 8 17.5 8H19ZM19 16H20.5C21.3284 16 22 16.6716 22 17.5V17.5C22 18.3284 21.3284 19 20.5 19H17.5C16.6716 19 16 18.3284 16 17.5V17.5C16 16.6716 16.6716 16 17.5 16H19ZM5 8V16M5 8H6.5C7.32843 8 8 7.32843 8 6.5V6.5C8 5.67157 7.32843 5 6.5 5H3.5C2.67157 5 2 5.67157 2 6.5V6.5C2 7.32843 2.67157 8 3.5 8H5ZM5 16H3.5C2.67157 16 2 16.6716 2 17.5V17.5C2 18.3284 2.67157 19 3.5 19H6.5C7.32843 19 8 18.3284 8 17.5V17.5C8 16.6716 7.32843 16 6.5 16H5Z"/></symbol>
  <symbol id="consumption" viewBox="0 0 24 24" fill="none"><path stroke="currentColor" stroke-linecap="round" stroke-linejoin="round" stroke-width="2" d="M3.34 19.0004C2.46222 17.4803 2.00007 15.7558 2 14.0004C1.99993 12.245 2.46195 10.5205 3.33962 9.00022C4.21729 7.47997 5.47967 6.21753 6.99989 5.33981C8.52011 4.46209 10.2446 4 12 4C13.7554 4 15.4799 4.46209 17.0001 5.33981C18.5203 6.21753 19.7827 7.47997 20.6604 9.00022C21.538 10.5205 22.0001 12.245 22 14.0004C21.9999 15.7558 21.5378 17.4803 20.66 19.0004"/><path stroke="currentColor" stroke-linecap="round" stroke-linejoin="round" stroke-width="2" d="M14.0002 14.0005C14.0002 15.1051 13.1048 16.0005 12.0002 16.0005 10.8957 16.0005 10.0002 15.1051 10.0002 14.0005 10.0002 12.896 10.8957 12.0005 12.0002 12.0005 13.1048 12.0005 14.0002 12.896 14.0002 14.0005ZM16 10 14 12"/></symbol>
</svg>
