<svg xmlns="http://www.w3.org/2000/svg">
  <symbol id="angle-down" viewBox="0 0 448 512" focusable="false"><path d="M201.4 374.6c12.5 12.5 32.8 12.5 45.3 0l160-160c12.5-12.5 12.5-32.8 0-45.3s-32.8-12.5-45.3 0L224 306.7 86.6 169.4c-12.5-12.5-32.8-12.5-45.3 0s-12.5 32.8 0 45.3l160 160z" fill="currentColor"/></symbol>
  <symbol id="arrow-right-from-bracket" viewBox="0 0 24 24" focusable="false" fill="none"><path d="M16 17L21 12M21 12L16 7M21 12H9M12 17C12 17.2956 12 17.4434 11.989 17.5714C11.8748 18.902 10.8949 19.9968 9.58503 20.2573C9.45903 20.2823 9.31202 20.2987 9.01835 20.3313L7.99694 20.4448C6.46248 20.6153 5.69521 20.7005 5.08566 20.5055C4.27293 20.2454 3.60942 19.6515 3.26118 18.8725C3 18.2882 3 17.5162 3 15.9723V8.0277C3 6.48377 3 5.7118 3.26118 5.12752C3.60942 4.34848 4.27293 3.7546 5.08566 3.49453C5.69521 3.29947 6.46246 3.38472 7.99694 3.55522L9.01835 3.66871C9.31212 3.70135 9.45901 3.71767 9.58503 3.74273C10.8949 4.00316 11.8748 5.09804 11.989 6.42861C12 6.55663 12 6.70442 12 7" stroke="currentColor" stroke-width="2" stroke-linecap="round" stroke-linejoin="round"></path></symbol>
  <symbol id="bookmark" viewBox="0 0 16 16" focusable="false"><path d="M3 2.5C3 1.94772 3.44772 1.5 4 1.5L12 1.5C12.5523 1.5 13 1.94772 13 2.5V14L8 10L3 14V2.5Z" stroke="currentColor" stroke-width="1.5" stroke-linecap="round" stroke-linejoin="round" fill="none"></path></symbol>
  <symbol id="circle-user" viewBox="0 0 512 512" focusable="false"><path d="M406.5 399.6C387.4 352.9 341.5 320 288 320l-64 0c-53.5 0-99.4 32.9-118.5 79.6C69.9 362.2 48 311.7 48 256C48 141.1 141.1 48 256 48s208 93.1 208 208c0 55.7-21.9 106.2-57.5 143.6zm-40.1 32.7C334.4 452.4 296.6 464 256 464s-78.4-11.6-110.5-31.7c7.3-36.7 39.7-64.3 78.5-64.3l64 0c38.8 0 71.2 27.6 78.5 64.3zM256 512A256 256 0 1 0 256 0a256 256 0 1 0 0 512zm0-272a40 40 0 1 1 0-80 40 40 0 1 1 0 80zm-88-40a88 88 0 1 0 176 0 88 88 0 1 0 -176 0z" fill="currentColor" /></symbol>
  <symbol id="eye-slash" viewBox="0 0 640 512" focusable="false"><path d="M38.8 5.1C28.4-3.1 13.3-1.2 5.1 9.2S-1.2 34.7 9.2 42.9l592 464c10.4 8.2 25.5 6.3 33.7-4.1s6.3-25.5-4.1-33.7L525.6 386.7c39.6-40.6 66.4-86.1 79.9-118.4c3.3-7.9 3.3-16.7 0-24.6c-14.9-35.7-46.2-87.7-93-131.1C465.5 68.8 400.8 32 320 32c-68.2 0-125 26.3-169.3 60.8L38.8 5.1zM223.1 149.5C248.6 126.2 282.7 112 320 112c79.5 0 144 64.5 144 144c0 24.9-6.3 48.3-17.4 68.7L408 294.5c8.4-19.3 10.6-41.4 4.8-63.3c-11.1-41.5-47.8-69.4-88.6-71.1c-5.8-.2-9.2 6.1-7.4 11.7c2.1 6.4 3.3 13.2 3.3 20.3c0 10.2-2.4 19.8-6.6 28.3l-90.3-70.8zM373 389.9c-16.4 6.5-34.3 10.1-53 10.1c-79.5 0-144-64.5-144-144c0-6.9 .5-13.6 1.4-20.2L83.1 161.5C60.3 191.2 44 220.8 34.5 243.7c-3.3 7.9-3.3 16.7 0 24.6c14.9 35.7 46.2 87.7 93 131.1C174.5 443.2 239.2 480 320 480c47.8 0 89.9-12.9 126.2-32.5L373 389.9z" fill="currentColor"/></symbol>
  <symbol id="eye" viewBox="0 0 576 512" focusable="false"><path d="M288 32c-80.8 0-145.5 36.8-192.6 80.6C48.6 156 17.3 208 2.5 243.7c-3.3 7.9-3.3 16.7 0 24.6C17.3 304 48.6 356 95.4 399.4C142.5 443.2 207.2 480 288 480s145.5-36.8 192.6-80.6c46.8-43.5 78.1-95.4 93-131.1c3.3-7.9 3.3-16.7 0-24.6c-14.9-35.7-46.2-87.7-93-131.1C433.5 68.8 368.8 32 288 32zM144 256a144 144 0 1 1 288 0 144 144 0 1 1 -288 0zm144-64c0 35.3-28.7 64-64 64c-7.1 0-13.9-1.2-20.3-3.3c-5.5-1.8-11.9 1.6-11.7 7.4c.3 6.9 1.3 13.8 3.2 20.7c13.7 51.2 66.4 81.6 117.6 67.9s81.6-66.4 67.9-117.6c-11.1-41.5-47.8-69.4-88.6-71.1c-5.8-.2-9.2 6.1-7.4 11.7c2.1 6.4 3.3 13.2 3.3 20.3z" fill="currentColor"/></symbol>
  <symbol id="facebook" viewBox="0 0 512 512" focusable="false"><path d="M512 256C512 114.6 397.4 0 256 0S0 114.6 0 256C0 376 82.7 476.8 194.2 504.5V334.2H141.4V256h52.8V222.3c0-87.1 39.4-127.5 125-127.5c16.2 0 44.2 3.2 55.7 6.4V172c-6-.6-16.5-1-29.6-1c-42 0-58.2 15.9-58.2 57.2V256h83.6l-14.4 78.2H287V510.1C413.8 494.8 512 386.9 512 256h0z" fill="currentColor"/></symbol>
  <symbol id="google" viewBox="0 0 512 512" focusable="false"><path d="M488 261.8C488 403.3 391.1 504 248 504 110.8 504 0 393.2 0 256S110.8 8 248 8c66.8 0 123 24.5 166.3 64.9l-67.5 64.9C258.5 52.6 94.3 116.6 94.3 256c0 86.5 69.1 156.6 153.7 156.6 98.2 0 135-70.4 140.8-106.9H248v-85.3h236.1c2.3 12.7 3.9 24.9 3.9 41.4z" fill="currentColor"/></symbol>
  <symbol id="heart" viewBox="0 0 512 512" focusable="false"><path d="M225.8 468.2l-2.5-2.3L48.1 303.2C17.4 274.7 0 234.7 0 192.8l0-3.3c0-70.4 50-130.8 119.2-144C158.6 37.9 198.9 47 231 69.6c9 6.4 17.4 13.8 25 22.3c4.2-4.8 8.7-9.2 13.5-13.3c3.7-3.2 7.5-6.2 11.5-9c0 0 0 0 0 0C313.1 47 353.4 37.9 392.8 45.4C462 58.6 512 119.1 512 189.5l0 3.3c0 41.9-17.4 81.9-48.1 110.4L288.7 465.9l-2.5 2.3c-8.2 7.6-19 11.9-30.2 11.9s-22-4.2-30.2-11.9zM239.1 145c-.4-.3-.7-.7-1-1.1l-17.8-20-.1-.1s0 0 0 0c-23.1-25.9-58-37.7-92-31.2C81.6 101.5 48 142.1 48 189.5l0 3.3c0 28.5 11.9 55.8 32.8 75.2L256 430.7 431.2 268c20.9-19.4 32.8-46.7 32.8-75.2l0-3.3c0-47.3-33.6-88-80.1-96.9c-34-6.5-69 5.4-92 31.2c0 0 0 0-.1 .1s0 0-.1 .1l-17.8 20c-.3 .4-.7 .7-1 1.1c-4.5 4.5-10.6 7-16.9 7s-12.4-2.5-16.9-7z" fill="currentColor"/></symbol>
  <symbol id="history" viewBox="0 0 24 24" focusable="false" fill="none"><path d="M5.74657 19.5334C7.5189 21.3629 10.0017 22.5 12.75 22.5V22.5C18.1348 22.5 22.5 18.1348 22.5 12.75C22.5 7.36522 18.1348 3 12.75 3C7.36522 3 3 7.36522 3 12.75" stroke="currentColor" stroke-width="2" stroke-linecap="round" stroke-linejoin="round"></path><path d="M12 7.5V13.125L16.5 15" stroke="currentColor" stroke-width="2" stroke-linecap="round" stroke-linejoin="round"></path><path d="M2.64645 15.6464L-0.146447 12.8536C-0.461429 12.5386 -0.238346 12 0.207107 12H5.79289C6.23835 12 6.46143 12.5386 6.14645 12.8536L3.35355 15.6464C3.15829 15.8417 2.84171 15.8417 2.64645 15.6464Z" fill="currentColor"></path></symbol>
  <symbol id="order" viewBox="0 0 16 16" focusable="false" fill="none"><path d="M3.5 11.5H9.86039C10.8138 11.5 11.6346 10.8271 11.8216 9.89223L13.2588 2.70583C13.3991 2.00469 14.0148 1.5 14.7298 1.5C14.8242 1.5 14.9155 1.5 15 1.5" stroke="currentColor" stroke-width="1.5" stroke-linecap="round" stroke-linejoin="round"></path><path d="M10.5 3.5H2.34403C1.67417 3.5 1.19372 4.14574 1.3862 4.78735L2.2862 7.78735C2.4131 8.21033 2.80242 8.5 3.24403 8.5H9.5" stroke="currentColor" stroke-width="1.5" stroke-linecap="round" stroke-linejoin="round"></path><circle cx="4.75" cy="14.25" r="0.75" stroke="currentColor" stroke-width="1.5" stroke-linecap="round" stroke-linejoin="round"></circle><circle cx="10.75" cy="14.25" r="0.75" stroke="currentColor" stroke-width="1.5" stroke-linecap="round" stroke-linejoin="round"></circle></symbol>
  <symbol id="settings" viewBox="0 0 24 24" focusable="false" fill="none"><path stroke="currentColor" d="M12.22 2H11.78C11.2496 2 10.7409 2.21071 10.3658 2.58579C9.99072 2.96086 9.78 3.46957 9.78 4V4.18C9.77964 4.53073 9.68706 4.87519 9.51154 5.17884C9.33602 5.48248 9.08374 5.73464 8.78 5.91L8.35 6.16C8.04596 6.33554 7.70108 6.42795 7.35 6.42795C6.99893 6.42795 6.65404 6.33554 6.35 6.16L6.2 6.08C5.74107 5.81526 5.19584 5.74344 4.684 5.88031C4.17217 6.01717 3.73555 6.35154 3.47 6.81L3.25 7.19C2.98526 7.64893 2.91345 8.19416 3.05031 8.706C3.18717 9.21783 3.52154 9.65445 3.98 9.92L4.13 10.02C4.43228 10.1945 4.68362 10.4451 4.85905 10.7468C5.03448 11.0486 5.1279 11.391 5.13 11.74V12.25C5.1314 12.6024 5.03965 12.949 4.86405 13.2545C4.68844 13.5601 4.43521 13.8138 4.13 13.99L3.98 14.08C3.52154 14.3456 3.18717 14.7822 3.05031 15.294C2.91345 15.8058 2.98526 16.3511 3.25 16.81L3.47 17.19C3.73555 17.6485 4.17217 17.9828 4.684 18.1197C5.19584 18.2566 5.74107 18.1847 6.2 17.92L6.35 17.84C6.65404 17.6645 6.99893 17.5721 7.35 17.5721C7.70108 17.5721 8.04596 17.6645 8.35 17.84L8.78 18.09C9.08374 18.2654 9.33602 18.5175 9.51154 18.8212C9.68706 19.1248 9.77964 19.4693 9.78 19.82V20C9.78 20.5304 9.99072 21.0391 10.3658 21.4142C10.7409 21.7893 11.2496 22 11.78 22H12.22C12.7504 22 13.2591 21.7893 13.6342 21.4142C14.0093 21.0391 14.22 20.5304 14.22 20V19.82C14.2204 19.4693 14.3129 19.1248 14.4885 18.8212C14.664 18.5175 14.9163 18.2654 15.22 18.09L15.65 17.84C15.954 17.6645 16.2989 17.5721 16.65 17.5721C17.0011 17.5721 17.346 17.6645 17.65 17.84L17.8 17.92C18.2589 18.1847 18.8042 18.2566 19.316 18.1197C19.8278 17.9828 20.2645 17.6485 20.53 17.19L20.75 16.8C21.0147 16.3411 21.0866 15.7958 20.9497 15.284C20.8128 14.7722 20.4785 14.3356 20.02 14.07L19.87 13.99C19.5648 13.8138 19.3116 13.5601 19.136 13.2545C18.9604 12.949 18.8686 12.6024 18.87 12.25V11.75C18.8686 11.3976 18.9604 11.051 19.136 10.7455C19.3116 10.4399 19.5648 10.1862 19.87 10.01L20.02 9.92C20.4785 9.65445 20.8128 9.21783 20.9497 8.706C21.0866 8.19416 21.0147 7.64893 20.75 7.19L20.53 6.81C20.2645 6.35154 19.8278 6.01717 19.316 5.88031C18.8042 5.74344 18.2589 5.81526 17.8 6.08L17.65 6.16C17.346 6.33554 17.0011 6.42795 16.65 6.42795C16.2989 6.42795 15.954 6.33554 15.65 6.16L15.22 5.91C14.9163 5.73464 14.664 5.48248 14.4885 5.17884C14.3129 4.87519 14.2204 4.53073 14.22 4.18V4C14.22 3.46957 14.0093 2.96086 13.6342 2.58579C13.2591 2.21071 12.7504 2 12.22 2Z" stroke-linecap="round" stroke-linejoin="round" stroke-width="2"></path><path stroke="currentColor" d="M12 15C13.6569 15 15 13.6569 15 12C15 10.3431 13.6569 9 12 9C10.3431 9 9 10.3431 9 12C9 13.6569 10.3431 15 12 15Z" stroke-linecap="round" stroke-linejoin="round" stroke-width="2"></path></symbol>
  <symbol id="sliders" viewBox="0 0 20 20" focusable="false" fill="none"><path d="M16.6667 5.83325H10" stroke="currentColor" stroke-width="1.67" stroke-linecap="round" stroke-linejoin="round"></path><path d="M4.99998 5.83325H3.33331" stroke="currentColor" stroke-width="1.67" stroke-linecap="round" stroke-linejoin="round"></path><path d="M9.99998 14.1667H3.33331" stroke="currentColor" stroke-width="1.67" stroke-linecap="round" stroke-linejoin="round"></path><path d="M16.6667 14.1667H15" stroke="currentColor" stroke-width="1.67" stroke-linecap="round" stroke-linejoin="round"></path><path d="M12.5 16.6667C13.8807 16.6667 15 15.5475 15 14.1667C15 12.786 13.8807 11.6667 12.5 11.6667C11.1193 11.6667 10 12.786 10 14.1667C10 15.5475 11.1193 16.6667 12.5 16.6667Z" stroke="currentColor" stroke-width="1.67" stroke-linecap="round" stroke-linejoin="round"></path><path d="M7.5 8.33325C8.88071 8.33325 10 7.21396 10 5.83325C10 4.45254 8.88071 3.33325 7.5 3.33325C6.11929 3.33325 5 4.45254 5 5.83325C5 7.21396 6.11929 8.33325 7.5 8.33325Z" stroke="currentColor" stroke-width="1.67" stroke-linecap="round" stroke-linejoin="round"></path></symbol>
  <symbol id="telegram" viewBox="0 0 512 512" focusable="false"><path d="M248 8C111 8 0 119 0 256S111 504 248 504 496 393 496 256 385 8 248 8zM363 176.7c-3.7 39.2-19.9 134.4-28.1 178.3-3.5 18.6-10.3 24.8-16.9 25.4-14.4 1.3-25.3-9.5-39.3-18.7-21.8-14.3-34.2-23.2-55.3-37.2-24.5-16.1-8.6-25 5.3-39.5 3.7-3.8 67.1-61.5 68.3-66.7 .2-.7 .3-3.1-1.2-4.4s-3.6-.8-5.1-.5q-3.3 .7-104.6 69.1-14.8 10.2-26.9 9.9c-8.9-.2-25.9-5-38.6-9.1-15.5-5-27.9-7.7-26.8-16.3q.8-6.7 18.5-13.7 108.4-47.2 144.6-62.3c68.9-28.6 83.2-33.6 92.5-33.8 2.1 0 6.6 .5 9.6 2.9a10.5 10.5 0 0 1 3.5 6.7A43.8 43.8 0 0 1 363 176.7z" fill="currentColor"/></symbol>
  <symbol id="tiktok" viewBox="0 0 512 512" focusable="false"><path d="M448 209.9a210.1 210.1 0 0 1 -122.8-39.3V349.4A162.6 162.6 0 1 1 185 188.3V278.2a74.6 74.6 0 1 0 52.2 71.2V0l88 0a121.2 121.2 0 0 0 1.9 22.2h0A122.2 122.2 0 0 0 381 102.4a121.4 121.4 0 0 0 67 20.1z" fill="currentColor"/></symbol>
  <symbol id="twitter" viewBox="0 0 512 512" focusable="false"><path d="M459.4 151.7c.3 4.5 .3 9.1 .3 13.6 0 138.7-105.6 298.6-298.6 298.6-59.5 0-114.7-17.2-161.1-47.1 8.4 1 16.6 1.3 25.3 1.3 49.1 0 94.2-16.6 130.3-44.8-46.1-1-84.8-31.2-98.1-72.8 6.5 1 13 1.6 19.8 1.6 9.4 0 18.8-1.3 27.6-3.6-48.1-9.7-84.1-52-84.1-103v-1.3c14 7.8 30.2 12.7 47.4 13.3-28.3-18.8-46.8-51-46.8-87.4 0-19.5 5.2-37.4 14.3-53 51.7 63.7 129.3 105.3 216.4 109.8-1.6-7.8-2.6-15.9-2.6-24 0-57.8 46.8-104.9 104.9-104.9 30.2 0 57.5 12.7 76.7 33.1 23.7-4.5 46.5-13.3 66.6-25.3-7.8 24.4-24.4 44.8-46.1 57.8 21.1-2.3 41.6-8.1 60.4-16.2-14.3 20.8-32.2 39.3-52.6 54.3z" fill="currentColor"/></symbol>
  <symbol id="xmark" viewBox="0 0 384 512" focusable="false"><path d="M342.6 150.6c12.5-12.5 12.5-32.8 0-45.3s-32.8-12.5-45.3 0L192 210.7 86.6 105.4c-12.5-12.5-32.8-12.5-45.3 0s-12.5 32.8 0 45.3L146.7 256 41.4 361.4c-12.5 12.5-12.5 32.8 0 45.3s32.8 12.5 45.3 0L192 301.3 297.4 406.6c12.5 12.5 32.8 12.5 45.3 0s12.5-32.8 0-45.3L237.3 256 342.6 150.6z" fill="currentColor"/></symbol>
  <symbol id="calendar-days" viewBox="0 0 448 512" focusable="false"><path d="M152 24c0-13.3-10.7-24-24-24s-24 10.7-24 24l0 40L64 64C28.7 64 0 92.7 0 128l0 16 0 48L0 448c0 35.3 28.7 64 64 64l320 0c35.3 0 64-28.7 64-64l0-256 0-48 0-16c0-35.3-28.7-64-64-64l-40 0 0-40c0-13.3-10.7-24-24-24s-24 10.7-24 24l0 40L152 64l0-40zM48 192l80 0 0 56-80 0 0-56zm0 104l80 0 0 64-80 0 0-64zm128 0l96 0 0 64-96 0 0-64zm144 0l80 0 0 64-80 0 0-64zm80-48l-80 0 0-56 80 0 0 56zm0 160l0 40c0 8.8-7.2 16-16 16l-64 0 0-56 80 0zm-128 0l0 56-96 0 0-56 96 0zm-144 0l0 56-64 0c-8.8 0-16-7.2-16-16l0-40 80 0zM272 248l-96 0 0-56 96 0 0 56z" ill="currentColor"/></symbol>
  <symbol id="engine" viewBox="0 0 24 24" focusable="false" fill="none"><path stroke="currentColor" stroke-linecap="round" stroke-linejoin="round" stroke-width="2" d="M22 9V12M22 21V18M22 12H18V9L16.2929 7.29289C16.1054 7.10536 15.851 7 15.5858 7H7C6.44772 7 6 7.44771 6 8V17C6 17.5523 6.44772 18 7 18H9.16667L11.6074 21H18V18H22M22 12V18"/><path stroke="currentColor" stroke-linecap="round" stroke-width="2" d="M2 9V16"/><path stroke="currentColor" stroke-linecap="round" stroke-linejoin="round" stroke-width="2" d="M8 3H14"/></symbol>
  <symbol id="calendar" viewBox="0 0 24 24" focusable="false" fill="none"><path stroke="currentColor" stroke-linecap="round" stroke-linejoin="round" stroke-width="2" d="M19 4H5C3.89543 4 3 4.89543 3 6V20C3 21.1046 3.89543 22 5 22H19C20.1046 22 21 21.1046 21 20V6C21 4.89543 20.1046 4 19 4ZM16 2V6M8 2V6M3 10H21"/></symbol>
  <symbol id="road" viewBox="0 0 24 24" focusable="false" fill="none"><path stroke="currentColor" stroke-linecap="round" stroke-linejoin="round" stroke-width="2" d="M12 20V15M12 11V9M12 5V4M5 3L2 21M19 3L22 21"/></symbol>
  <symbol id="transmission" viewBox="0 0 24 24" focusable="false" fill="none"><path stroke="currentColor" stroke-width="2" d="M5 7C6.10457 7 7 6.10457 7 5C7 3.89543 6.10457 3 5 3C3.89543 3 3 3.89543 3 5C3 6.10457 3.89543 7 5 7ZM5 7V12M12 17C10.8954 17 10 17.8954 10 19C10 20.1046 10.8954 21 12 21C13.1046 21 14 20.1046 14 19C14 17.8954 13.1046 17 12 17ZM12 17V7M5 17C3.89543 17 3 17.8954 3 19C3 20.1046 3.89543 21 5 21C6.10457 21 7 20.1046 7 19C7 17.8954 6.10457 17 5 17ZM5 17V12M12 7C13.1046 7 14 6.10457 14 5C14 3.89543 13.1046 3 12 3C10.8954 3 10 3.89543 10 5C10 6.10457 10.8954 7 12 7ZM19 7C20.1046 7 21 6.10457 21 5C21 3.89543 20.1046 3 19 3C17.8954 3 17 3.89543 17 5C17 6.10457 17.8954 7 19 7ZM19 7V11C19 11.5523 18.5523 12 18 12H5"/></symbol>
  <symbol id="fuel" viewBox="0 0 24 24" focusable="false" fill="none"><path stroke="currentColor" stroke-linecap="round" stroke-linejoin="round" stroke-width="2" d="M12.56 6.07512C13.2477 4.97624 13.7353 3.76416 14 2.49512C14.5 4.99512 16 7.39512 18 8.99512C20 10.5951 21 12.4951 21 14.4951C21.0057 15.8774 20.6009 17.2303 19.8368 18.3822C19.0727 19.5341 17.9838 20.4333 16.7081 20.9656C15.4324 21.4979 14.0274 21.6395 12.6712 21.3724C11.8447 21.2096 10.2969 20.7305 9.08984 19.4648M7 15.7758C9.2 15.7758 11 13.9458 11 11.7258C11 10.5658 10.43 9.46584 9.29 8.53584C8.15 7.60584 7.29 6.22584 7 4.77584C6.71 6.22584 5.86 7.61584 4.71 8.53584C3.56 9.45584 3 10.5758 3 11.7258C3 13.9458 4.8 15.7758 7 15.7758Z"/></symbol>
  <symbol id="hybrid" viewBox="0 0 24 24" focusable="false" fill="none"><g clip-path="url(#clip0_3461_12327)"><path fill="currentColor" d="M16.8558 2L17.7919 2.35192C17.9074 2.04478 17.8648 1.70053 17.678 1.43076C17.4912 1.16098 17.184 1 16.8558 1V2ZM14.6 8L13.664 7.64808C13.5485 7.95522 13.591 8.29947 13.7778 8.56924C13.9646 8.83902 14.2719 9 14.6 9V8ZM10.1 22L9.15323 21.6781C9.00267 22.1209 9.17916 22.6089 9.57814 22.853C9.97712 23.0971 10.492 23.032 10.8177 22.6964L10.1 22ZM5 3.2L5.98058 3.00388C5.8871 2.53646 5.47668 2.2 5 2.2C4.52332 2.2 4.1129 2.53646 4.01942 3.00388L5 3.2ZM13.16 13L14.1068 13.3219C14.2106 13.0166 14.1608 12.6799 13.973 12.4177C13.7852 12.1555 13.4825 12 13.16 12V13ZM12.5 12C11.9477 12 11.5 12.4477 11.5 13C11.5 13.5523 11.9477 14 12.5 14V12ZM8.70557 3.55279C8.45858 4.04676 8.65881 4.64744 9.15279 4.89443C9.64677 5.14142 10.2474 4.94119 10.4944 4.44721L8.70557 3.55279ZM22.8252 8.11833L23.4712 7.355L22.8252 8.11833ZM22.3673 9.35709L21.6496 8.66073L22.3673 9.35709ZM23.0011 8.53397L23.9988 8.6019L23.0011 8.53397ZM10.746 2.02733L11.0721 2.97267L10.746 2.02733ZM10.5592 2.14279L9.85944 1.42837L10.5592 2.14279ZM11.0944 3H16.8558V1H11.0944V3ZM15.9198 1.64808L13.664 7.64808L15.536 8.35192L17.7919 2.35192L15.9198 1.64808ZM14.6 9H21.7931V7H14.6V9ZM21.6496 8.66073L9.38231 21.3036L10.8177 22.6964L23.085 10.0535L21.6496 8.66073ZM5 15.2C7.76515 15.2 10 12.9093 10 10.15H8C8 11.8307 6.63485 13.2 5 13.2V15.2ZM10 10.15C10 8.62598 9.24072 7.26083 7.92213 6.18513L6.65787 7.73487C7.61928 8.51917 8 9.35402 8 10.15H10ZM7.92213 6.18513C6.95318 5.39468 6.22292 4.21559 5.98058 3.00388L4.01942 3.39612C4.35708 5.08441 5.34682 6.66533 6.65787 7.73487L7.92213 6.18513ZM4.01942 3.00388C3.77579 4.22205 3.05247 5.4054 2.0853 6.17913L3.3347 7.74087C4.66753 6.6746 5.64421 5.07795 5.98058 3.39612L4.01942 3.00388ZM2.0853 6.17913C0.74214 7.25366 0 8.64396 0 10.15H2C2 9.35604 2.37786 8.50634 3.3347 7.74087L2.0853 6.17913ZM0 10.15C0 12.9093 2.23485 15.2 5 15.2V13.2C3.36515 13.2 2 11.8307 2 10.15H0ZM11.0468 22.3219L14.1068 13.3219L12.2132 12.6781L9.15323 21.6781L11.0468 22.3219ZM13.16 12H12.5V14H13.16V12ZM10.4944 4.44721L11.2733 2.88944L9.48446 1.99502L8.70557 3.55279L10.4944 4.44721ZM21.7931 9C21.9443 9 22.0655 9.00003 22.1694 9.00172C22.2742 9.00342 22.3436 9.00662 22.3912 9.01085C22.4415 9.01533 22.4385 9.01868 22.4077 9.00964C22.373 8.9995 22.2802 8.96716 22.1792 8.88167L23.4712 7.355C23.1466 7.08027 22.7591 7.03569 22.5685 7.01873C22.3473 6.99904 22.0707 7 21.7931 7V9ZM23.085 10.0535C23.2783 9.85423 23.4715 9.65644 23.6115 9.48397C23.732 9.33537 23.9699 9.02618 23.9988 8.6019L22.0034 8.46603C22.0124 8.334 22.0538 8.24488 22.0706 8.21297C22.0856 8.18452 22.0901 8.18473 22.0583 8.22397C22.0282 8.26103 21.9821 8.31308 21.9104 8.38947C21.8393 8.46522 21.7549 8.55225 21.6496 8.66073L23.085 10.0535ZM22.1792 8.88167C22.0579 8.77896 21.9926 8.62466 22.0034 8.46603L23.9988 8.6019C24.0312 8.12603 23.8353 7.66312 23.4712 7.355L22.1792 8.88167ZM11.0944 1C10.9874 1 10.6954 0.986953 10.4199 1.08198L11.0721 2.97267C11.0542 2.97883 11.0369 2.98391 11.0205 2.98804C11.0042 2.99215 10.9898 2.99504 10.978 2.99708C10.9551 3.00101 10.9419 3.00166 10.9449 3.00148C10.946 3.0014 10.9499 3.00119 10.9573 3.00096C10.9648 3.00072 10.9746 3.00051 10.9876 3.00035C11.0007 3.00019 11.0158 3.0001 11.0339 3.00005C11.0521 3 11.0717 3 11.0944 3V1ZM11.2733 2.88944C11.2835 2.8691 11.2923 2.85155 11.3004 2.8353C11.3086 2.81915 11.3154 2.80571 11.3214 2.79409C11.3274 2.78248 11.3319 2.77381 11.3355 2.76726C11.339 2.76071 11.3409 2.75735 11.3415 2.75632C11.343 2.75375 11.3365 2.76529 11.3228 2.784C11.3156 2.79369 11.3066 2.80523 11.2957 2.81798C11.2846 2.83081 11.2724 2.844 11.2589 2.85721L9.85944 1.42837C9.65123 1.6323 9.5323 1.89933 9.48446 1.99502L11.2733 2.88944ZM10.4199 1.08198C10.2097 1.15448 10.0183 1.2728 9.85944 1.42837L11.2589 2.85721C11.2059 2.90907 11.1421 2.94851 11.0721 2.97267L10.4199 1.08198Z"/></g><defs><clipPath id="clip0_3461_12327"><rect width="24" height="24" fill="currentColor"/></clipPath></defs></symbol>
  <symbol id="electric" viewBox="0 0 24 24" focusable="false" fill="none"><path stroke="currentColor" stroke-linecap="round" stroke-linejoin="round" stroke-width="2" d="M14.2495 2H8.49395C8.31447 2 8.22473 2 8.14551 2.02733C8.07544 2.05149 8.01163 2.09093 7.95868 2.14279C7.89881 2.20143 7.85868 2.2817 7.77841 2.44223L3.57841 10.8422C3.38673 11.2256 3.29089 11.4173 3.31391 11.5731C3.33401 11.7091 3.40927 11.8309 3.52197 11.9097C3.65104 12 3.86534 12 4.29395 12H10.4995L7.49953 22L19.6926 9.35531C20.104 8.9287 20.3097 8.7154 20.3217 8.53288C20.3321 8.37446 20.2667 8.22049 20.1454 8.11803C20.0057 8 19.7094 8 19.1167 8H11.9995L14.2495 2Z"/></symbol>
  <symbol id="trash" viewBox="0 0 24 24" focusable="false" fill="none"><path d="M3 6H5H21" stroke="currentColor" stroke-width="2" stroke-linecap="round" stroke-linejoin="round"></path><path d="M20 6C20 5.44772 19.5523 5 19 5C18.4477 5 18 5.44772 18 6H20ZM6 6C6 5.44772 5.55228 5 5 5C4.44772 5 4 5.44772 4 6H6ZM7 6C7 6.55228 7.44772 7 8 7C8.55228 7 9 6.55228 9 6H7ZM15 6C15 6.55228 15.4477 7 16 7C16.5523 7 17 6.55228 17 6H15ZM18 6V20H20V6H18ZM18 20C18 20.5523 17.5523 21 17 21V23C18.6569 23 20 21.6569 20 20H18ZM17 21H7V23H17V21ZM7 21C6.44772 21 6 20.5523 6 20H4C4 21.6569 5.34315 23 7 23V21ZM6 20V6H4V20H6ZM9 6V4H7V6H9ZM9 4C9 3.44772 9.44772 3 10 3V1C8.34315 1 7 2.34315 7 4H9ZM10 3H14V1H10V3ZM14 3C14.5523 3 15 3.44772 15 4H17C17 2.34315 15.6569 1 14 1V3ZM15 4V6H17V4H15Z" fill="currentColor"></path><path d="M10 11V17" stroke="currentColor" stroke-width="2" stroke-linecap="round" stroke-linejoin="round"></path><path d="M14 11V17" stroke="currentColor" stroke-width="2" stroke-linecap="round" stroke-linejoin="round"></path></symbol>
</svg>