<svg xmlns="http://www.w3.org/2000/svg">
  <symbol id="eye-slash" viewBox="0 0 640 512" focusable="false"><path d="M38.8 5.1C28.4-3.1 13.3-1.2 5.1 9.2S-1.2 34.7 9.2 42.9l592 464c10.4 8.2 25.5 6.3 33.7-4.1s6.3-25.5-4.1-33.7L525.6 386.7c39.6-40.6 66.4-86.1 79.9-118.4c3.3-7.9 3.3-16.7 0-24.6c-14.9-35.7-46.2-87.7-93-131.1C465.5 68.8 400.8 32 320 32c-68.2 0-125 26.3-169.3 60.8L38.8 5.1zM223.1 149.5C248.6 126.2 282.7 112 320 112c79.5 0 144 64.5 144 144c0 24.9-6.3 48.3-17.4 68.7L408 294.5c8.4-19.3 10.6-41.4 4.8-63.3c-11.1-41.5-47.8-69.4-88.6-71.1c-5.8-.2-9.2 6.1-7.4 11.7c2.1 6.4 3.3 13.2 3.3 20.3c0 10.2-2.4 19.8-6.6 28.3l-90.3-70.8zM373 389.9c-16.4 6.5-34.3 10.1-53 10.1c-79.5 0-144-64.5-144-144c0-6.9 .5-13.6 1.4-20.2L83.1 161.5C60.3 191.2 44 220.8 34.5 243.7c-3.3 7.9-3.3 16.7 0 24.6c14.9 35.7 46.2 87.7 93 131.1C174.5 443.2 239.2 480 320 480c47.8 0 89.9-12.9 126.2-32.5L373 389.9z" fill="currentColor"/></symbol>
  <symbol id="eye" viewBox="0 0 576 512" focusable="false"><path d="M288 32c-80.8 0-145.5 36.8-192.6 80.6C48.6 156 17.3 208 2.5 243.7c-3.3 7.9-3.3 16.7 0 24.6C17.3 304 48.6 356 95.4 399.4C142.5 443.2 207.2 480 288 480s145.5-36.8 192.6-80.6c46.8-43.5 78.1-95.4 93-131.1c3.3-7.9 3.3-16.7 0-24.6c-14.9-35.7-46.2-87.7-93-131.1C433.5 68.8 368.8 32 288 32zM144 256a144 144 0 1 1 288 0 144 144 0 1 1 -288 0zm144-64c0 35.3-28.7 64-64 64c-7.1 0-13.9-1.2-20.3-3.3c-5.5-1.8-11.9 1.6-11.7 7.4c.3 6.9 1.3 13.8 3.2 20.7c13.7 51.2 66.4 81.6 117.6 67.9s81.6-66.4 67.9-117.6c-11.1-41.5-47.8-69.4-88.6-71.1c-5.8-.2-9.2 6.1-7.4 11.7c2.1 6.4 3.3 13.2 3.3 20.3z" fill="currentColor"/></symbol>
  <symbol id="facebook" viewBox="0 0 512 512" focusable="false"><path d="M512 256C512 114.6 397.4 0 256 0S0 114.6 0 256C0 376 82.7 476.8 194.2 504.5V334.2H141.4V256h52.8V222.3c0-87.1 39.4-127.5 125-127.5c16.2 0 44.2 3.2 55.7 6.4V172c-6-.6-16.5-1-29.6-1c-42 0-58.2 15.9-58.2 57.2V256h83.6l-14.4 78.2H287V510.1C413.8 494.8 512 386.9 512 256h0z" fill="currentColor"/></symbol>
  <symbol id="google" viewBox="0 0 512 512" focusable="false"><path d="M488 261.8C488 403.3 391.1 504 248 504 110.8 504 0 393.2 0 256S110.8 8 248 8c66.8 0 123 24.5 166.3 64.9l-67.5 64.9C258.5 52.6 94.3 116.6 94.3 256c0 86.5 69.1 156.6 153.7 156.6 98.2 0 135-70.4 140.8-106.9H248v-85.3h236.1c2.3 12.7 3.9 24.9 3.9 41.4z" fill="currentColor"/></symbol>
  <symbol id="telegram" viewBox="0 0 512 512" focusable="false"><path d="M248 8C111 8 0 119 0 256S111 504 248 504 496 393 496 256 385 8 248 8zM363 176.7c-3.7 39.2-19.9 134.4-28.1 178.3-3.5 18.6-10.3 24.8-16.9 25.4-14.4 1.3-25.3-9.5-39.3-18.7-21.8-14.3-34.2-23.2-55.3-37.2-24.5-16.1-8.6-25 5.3-39.5 3.7-3.8 67.1-61.5 68.3-66.7 .2-.7 .3-3.1-1.2-4.4s-3.6-.8-5.1-.5q-3.3 .7-104.6 69.1-14.8 10.2-26.9 9.9c-8.9-.2-25.9-5-38.6-9.1-15.5-5-27.9-7.7-26.8-16.3q.8-6.7 18.5-13.7 108.4-47.2 144.6-62.3c68.9-28.6 83.2-33.6 92.5-33.8 2.1 0 6.6 .5 9.6 2.9a10.5 10.5 0 0 1 3.5 6.7A43.8 43.8 0 0 1 363 176.7z" fill="currentColor"/></symbol>
  <symbol id="tiktok" viewBox="0 0 512 512" focusable="false"><path d="M448 209.9a210.1 210.1 0 0 1 -122.8-39.3V349.4A162.6 162.6 0 1 1 185 188.3V278.2a74.6 74.6 0 1 0 52.2 71.2V0l88 0a121.2 121.2 0 0 0 1.9 22.2h0A122.2 122.2 0 0 0 381 102.4a121.4 121.4 0 0 0 67 20.1z" fill="currentColor"/></symbol>
  <symbol id="twitter" viewBox="0 0 512 512" focusable="false"><path d="M459.4 151.7c.3 4.5 .3 9.1 .3 13.6 0 138.7-105.6 298.6-298.6 298.6-59.5 0-114.7-17.2-161.1-47.1 8.4 1 16.6 1.3 25.3 1.3 49.1 0 94.2-16.6 130.3-44.8-46.1-1-84.8-31.2-98.1-72.8 6.5 1 13 1.6 19.8 1.6 9.4 0 18.8-1.3 27.6-3.6-48.1-9.7-84.1-52-84.1-103v-1.3c14 7.8 30.2 12.7 47.4 13.3-28.3-18.8-46.8-51-46.8-87.4 0-19.5 5.2-37.4 14.3-53 51.7 63.7 129.3 105.3 216.4 109.8-1.6-7.8-2.6-15.9-2.6-24 0-57.8 46.8-104.9 104.9-104.9 30.2 0 57.5 12.7 76.7 33.1 23.7-4.5 46.5-13.3 66.6-25.3-7.8 24.4-24.4 44.8-46.1 57.8 21.1-2.3 41.6-8.1 60.4-16.2-14.3 20.8-32.2 39.3-52.6 54.3z" fill="currentColor"/></symbol>
  
  <symbol id="calendar-days" viewBox="0 0 448 512" focusable="false"><path d="M152 24c0-13.3-10.7-24-24-24s-24 10.7-24 24l0 40L64 64C28.7 64 0 92.7 0 128l0 16 0 48L0 448c0 35.3 28.7 64 64 64l320 0c35.3 0 64-28.7 64-64l0-256 0-48 0-16c0-35.3-28.7-64-64-64l-40 0 0-40c0-13.3-10.7-24-24-24s-24 10.7-24 24l0 40L152 64l0-40zM48 192l80 0 0 56-80 0 0-56zm0 104l80 0 0 64-80 0 0-64zm128 0l96 0 0 64-96 0 0-64zm144 0l80 0 0 64-80 0 0-64zm80-48l-80 0 0-56 80 0 0 56zm0 160l0 40c0 8.8-7.2 16-16 16l-64 0 0-56 80 0zm-128 0l0 56-96 0 0-56 96 0zm-144 0l0 56-64 0c-8.8 0-16-7.2-16-16l0-40 80 0zM272 248l-96 0 0-56 96 0 0 56z" ill="currentColor"/></symbol>

  <symbol id="icon-home" viewBox="0 0 40 40" focusable="false" fill="none"><path d="M35.5 36.5V20.5H38.5L21.4329 2.97167C20.6478 2.16531 19.3522 2.16532 18.5671 2.97167L1.5 20.5H4.5V36.5" stroke="currentColor" stroke-width="1.5" stroke-linecap="round" stroke-linejoin="round"></path><path d="M2.5 36.5H37.5" stroke="currentColor" stroke-width="1.5" stroke-linecap="round" stroke-linejoin="round"></path><path d="M24.5 36.5V24.5C24.5 23.9477 24.0523 23.5 23.5 23.5H16.5C15.9477 23.5 15.5 23.9477 15.5 24.5V36.5" stroke="currentColor" stroke-width="1.5" stroke-linecap="round" stroke-linejoin="round"></path><path d="M7 20L19.2929 7.70711C19.6834 7.31658 20.3166 7.31658 20.7071 7.70711L33 20" stroke="currentColor" stroke-width="1.5" stroke-linecap="round" stroke-linejoin="round"></path></symbol>
  <symbol id="icon-find" viewBox="0 0 40 40" focusable="false" fill="none"><path d="M28.5 2.5L29.9285 5.19478L32.3285 8.74629C32.4403 8.91164 32.5 9.10664 32.5 9.30621V15.5C32.5 16.6046 31.6046 17.5 30.5 17.5H9.5C8.39543 17.5 7.5 16.6046 7.5 15.5V9.30193C7.5 9.10503 7.55813 8.91252 7.66709 8.74852L10.0283 5.19478L11.5 2.5" stroke="currentColor" stroke-width="1.5" stroke-linecap="round" stroke-linejoin="round"></path><path d="M12.5 18.0222V19.5C12.5 20.0523 12.0523 20.5 11.5 20.5L8.4684 20.5001C7.91302 20.5001 7.46403 20.0475 7.46842 19.4922L7.5 15.5" stroke="currentColor" stroke-width="1.5" stroke-miterlimit="10" stroke-linecap="round" stroke-linejoin="round"></path><path d="M27.4604 18.0222V19.5C27.4604 20.0523 27.9082 20.5 28.4604 20.5L31.5 20.5001C32.0523 20.5001 32.5 20.0524 32.5 19.5001L32.5 15.5" stroke="currentColor" stroke-width="1.5" stroke-miterlimit="10" stroke-linecap="round" stroke-linejoin="round"></path><path d="M25.3827 11.4648H15L15.7736 13.8129C15.9087 14.223 16.2917 14.5 16.7234 14.5H23.7494C24.1941 14.5 24.5854 14.2063 24.7096 13.7793L25.3827 11.4648Z" stroke="currentColor" stroke-width="1.5" stroke-miterlimit="10" stroke-linecap="round" stroke-linejoin="round"></path><path d="M9.5 10.5L12.5 11" stroke="currentColor" stroke-width="1.5" stroke-miterlimit="10" stroke-linecap="round" stroke-linejoin="round"></path><path d="M30.5 10.5L27.5 11" stroke="currentColor" stroke-width="1.5" stroke-miterlimit="10" stroke-linecap="round" stroke-linejoin="round"></path><path d="M30 6C30 6 28 7.5 24.9894 7.5C21.6648 7.5 18.3401 7.5 15.0155 7.5C12 7.5 10 6 10 6" stroke="currentColor" stroke-width="1.5" stroke-miterlimit="10" stroke-linecap="round" stroke-linejoin="round"></path><path d="M2.5 2.5V22.5C2.5 23.6046 3.39543 24.5 4.5 24.5H35.5C36.6046 24.5 37.5 23.6046 37.5 22.5V2.5" stroke="currentColor" stroke-width="1.5" stroke-miterlimit="10" stroke-linecap="round" stroke-linejoin="round"></path><path d="M11 37.5L11.9472 35.6056C12.286 34.928 12.9786 34.5 13.7361 34.5H26.264C27.0215 34.5 27.714 34.928 28.0528 35.6056L29 37.5" stroke="currentColor" stroke-width="1.5" stroke-linecap="round" stroke-linejoin="round"></path><path d="M2.5 37.5V32.5C2.5 31.3954 3.39543 30.5 4.5 30.5H35.5C36.6046 30.5 37.5 31.3954 37.5 32.5V37.5" stroke="currentColor" stroke-width="1.5" stroke-miterlimit="10" stroke-linecap="round" stroke-linejoin="round"></path></symbol>

  <symbol id="arrows" viewBox="0 0 32 32" focusable="false"><path d="M20 12.25L25 7.25M25 7.25H20M25 7.25V12.25M12 12.25L7 7.25M7 7.25L7 12.25M7 7.25L12 7.25M12 20.25L7 25.25M7 25.25H12M7 25.25L7 20.25M20 20.25L25 25.25M25 25.25V20.25M25 25.25H20" stroke="currentColor" stroke-width="2" stroke-linecap="round" stroke-linejoin="round"></path></symbol>

  <symbol id="history" viewBox="0 0 24 24" focusable="false" fill="none"><path d="M5.74657 19.5334C7.5189 21.3629 10.0017 22.5 12.75 22.5V22.5C18.1348 22.5 22.5 18.1348 22.5 12.75C22.5 7.36522 18.1348 3 12.75 3C7.36522 3 3 7.36522 3 12.75" stroke="currentColor" stroke-width="2" stroke-linecap="round" stroke-linejoin="round"></path><path d="M12 7.5V13.125L16.5 15" stroke="currentColor" stroke-width="2" stroke-linecap="round" stroke-linejoin="round"></path><path d="M2.64645 15.6464L-0.146447 12.8536C-0.461429 12.5386 -0.238346 12 0.207107 12H5.79289C6.23835 12 6.46143 12.5386 6.14645 12.8536L3.35355 15.6464C3.15829 15.8417 2.84171 15.8417 2.64645 15.6464Z" fill="currentColor"></path></symbol>
  <symbol id="settings" viewBox="0 0 24 24" focusable="false" fill="none"><path stroke="currentColor" d="M12.22 2H11.78C11.2496 2 10.7409 2.21071 10.3658 2.58579C9.99072 2.96086 9.78 3.46957 9.78 4V4.18C9.77964 4.53073 9.68706 4.87519 9.51154 5.17884C9.33602 5.48248 9.08374 5.73464 8.78 5.91L8.35 6.16C8.04596 6.33554 7.70108 6.42795 7.35 6.42795C6.99893 6.42795 6.65404 6.33554 6.35 6.16L6.2 6.08C5.74107 5.81526 5.19584 5.74344 4.684 5.88031C4.17217 6.01717 3.73555 6.35154 3.47 6.81L3.25 7.19C2.98526 7.64893 2.91345 8.19416 3.05031 8.706C3.18717 9.21783 3.52154 9.65445 3.98 9.92L4.13 10.02C4.43228 10.1945 4.68362 10.4451 4.85905 10.7468C5.03448 11.0486 5.1279 11.391 5.13 11.74V12.25C5.1314 12.6024 5.03965 12.949 4.86405 13.2545C4.68844 13.5601 4.43521 13.8138 4.13 13.99L3.98 14.08C3.52154 14.3456 3.18717 14.7822 3.05031 15.294C2.91345 15.8058 2.98526 16.3511 3.25 16.81L3.47 17.19C3.73555 17.6485 4.17217 17.9828 4.684 18.1197C5.19584 18.2566 5.74107 18.1847 6.2 17.92L6.35 17.84C6.65404 17.6645 6.99893 17.5721 7.35 17.5721C7.70108 17.5721 8.04596 17.6645 8.35 17.84L8.78 18.09C9.08374 18.2654 9.33602 18.5175 9.51154 18.8212C9.68706 19.1248 9.77964 19.4693 9.78 19.82V20C9.78 20.5304 9.99072 21.0391 10.3658 21.4142C10.7409 21.7893 11.2496 22 11.78 22H12.22C12.7504 22 13.2591 21.7893 13.6342 21.4142C14.0093 21.0391 14.22 20.5304 14.22 20V19.82C14.2204 19.4693 14.3129 19.1248 14.4885 18.8212C14.664 18.5175 14.9163 18.2654 15.22 18.09L15.65 17.84C15.954 17.6645 16.2989 17.5721 16.65 17.5721C17.0011 17.5721 17.346 17.6645 17.65 17.84L17.8 17.92C18.2589 18.1847 18.8042 18.2566 19.316 18.1197C19.8278 17.9828 20.2645 17.6485 20.53 17.19L20.75 16.8C21.0147 16.3411 21.0866 15.7958 20.9497 15.284C20.8128 14.7722 20.4785 14.3356 20.02 14.07L19.87 13.99C19.5648 13.8138 19.3116 13.5601 19.136 13.2545C18.9604 12.949 18.8686 12.6024 18.87 12.25V11.75C18.8686 11.3976 18.9604 11.051 19.136 10.7455C19.3116 10.4399 19.5648 10.1862 19.87 10.01L20.02 9.92C20.4785 9.65445 20.8128 9.21783 20.9497 8.706C21.0866 8.19416 21.0147 7.64893 20.75 7.19L20.53 6.81C20.2645 6.35154 19.8278 6.01717 19.316 5.88031C18.8042 5.74344 18.2589 5.81526 17.8 6.08L17.65 6.16C17.346 6.33554 17.0011 6.42795 16.65 6.42795C16.2989 6.42795 15.954 6.33554 15.65 6.16L15.22 5.91C14.9163 5.73464 14.664 5.48248 14.4885 5.17884C14.3129 4.87519 14.2204 4.53073 14.22 4.18V4C14.22 3.46957 14.0093 2.96086 13.6342 2.58579C13.2591 2.21071 12.7504 2 12.22 2Z" stroke-linecap="round" stroke-linejoin="round" stroke-width="2"></path><path stroke="currentColor" d="M12 15C13.6569 15 15 13.6569 15 12C15 10.3431 13.6569 9 12 9C10.3431 9 9 10.3431 9 12C9 13.6569 10.3431 15 12 15Z" stroke-linecap="round" stroke-linejoin="round" stroke-width="2"></path></symbol>
  <symbol id="engine" viewBox="0 0 24 24" focusable="false" fill="none"><path stroke="currentColor" stroke-linecap="round" stroke-linejoin="round" stroke-width="2" d="M22 9V12M22 21V18M22 12H18V9L16.2929 7.29289C16.1054 7.10536 15.851 7 15.5858 7H7C6.44772 7 6 7.44771 6 8V17C6 17.5523 6.44772 18 7 18H9.16667L11.6074 21H18V18H22M22 12V18"/><path stroke="currentColor" stroke-linecap="round" stroke-width="2" d="M2 9V16"/><path stroke="currentColor" stroke-linecap="round" stroke-linejoin="round" stroke-width="2" d="M8 3H14"/></symbol>
  <symbol id="calendar" viewBox="0 0 24 24" focusable="false" fill="none"><path stroke="currentColor" stroke-linecap="round" stroke-linejoin="round" stroke-width="2" d="M19 4H5C3.89543 4 3 4.89543 3 6V20C3 21.1046 3.89543 22 5 22H19C20.1046 22 21 21.1046 21 20V6C21 4.89543 20.1046 4 19 4ZM16 2V6M8 2V6M3 10H21"/></symbol>
  <symbol id="road" viewBox="0 0 24 24" focusable="false" fill="none"><path stroke="currentColor" stroke-linecap="round" stroke-linejoin="round" stroke-width="2" d="M12 20V15M12 11V9M12 5V4M5 3L2 21M19 3L22 21"/></symbol>
  <symbol id="transmission" viewBox="0 0 24 24" focusable="false" fill="none"><path stroke="currentColor" stroke-width="2" d="M5 7C6.10457 7 7 6.10457 7 5C7 3.89543 6.10457 3 5 3C3.89543 3 3 3.89543 3 5C3 6.10457 3.89543 7 5 7ZM5 7V12M12 17C10.8954 17 10 17.8954 10 19C10 20.1046 10.8954 21 12 21C13.1046 21 14 20.1046 14 19C14 17.8954 13.1046 17 12 17ZM12 17V7M5 17C3.89543 17 3 17.8954 3 19C3 20.1046 3.89543 21 5 21C6.10457 21 7 20.1046 7 19C7 17.8954 6.10457 17 5 17ZM5 17V12M12 7C13.1046 7 14 6.10457 14 5C14 3.89543 13.1046 3 12 3C10.8954 3 10 3.89543 10 5C10 6.10457 10.8954 7 12 7ZM19 7C20.1046 7 21 6.10457 21 5C21 3.89543 20.1046 3 19 3C17.8954 3 17 3.89543 17 5C17 6.10457 17.8954 7 19 7ZM19 7V11C19 11.5523 18.5523 12 18 12H5"/></symbol>
  <symbol id="petrol" viewBox="0 0 24 24" focusable="false" fill="none"><path stroke="currentColor" stroke-linecap="round" stroke-linejoin="round" stroke-width="2" d="M12.56 6.07512C13.2477 4.97624 13.7353 3.76416 14 2.49512C14.5 4.99512 16 7.39512 18 8.99512C20 10.5951 21 12.4951 21 14.4951C21.0057 15.8774 20.6009 17.2303 19.8368 18.3822C19.0727 19.5341 17.9838 20.4333 16.7081 20.9656C15.4324 21.4979 14.0274 21.6395 12.6712 21.3724C11.8447 21.2096 10.2969 20.7305 9.08984 19.4648M7 15.7758C9.2 15.7758 11 13.9458 11 11.7258C11 10.5658 10.43 9.46584 9.29 8.53584C8.15 7.60584 7.29 6.22584 7 4.77584C6.71 6.22584 5.86 7.61584 4.71 8.53584C3.56 9.45584 3 10.5758 3 11.7258C3 13.9458 4.8 15.7758 7 15.7758Z"/></symbol>
  <symbol id="hybrid" viewBox="0 0 24 24" focusable="false" fill="none"><g clip-path="url(#clip0_3461_12327)"><path fill="currentColor" d="M16.8558 2L17.7919 2.35192C17.9074 2.04478 17.8648 1.70053 17.678 1.43076C17.4912 1.16098 17.184 1 16.8558 1V2ZM14.6 8L13.664 7.64808C13.5485 7.95522 13.591 8.29947 13.7778 8.56924C13.9646 8.83902 14.2719 9 14.6 9V8ZM10.1 22L9.15323 21.6781C9.00267 22.1209 9.17916 22.6089 9.57814 22.853C9.97712 23.0971 10.492 23.032 10.8177 22.6964L10.1 22ZM5 3.2L5.98058 3.00388C5.8871 2.53646 5.47668 2.2 5 2.2C4.52332 2.2 4.1129 2.53646 4.01942 3.00388L5 3.2ZM13.16 13L14.1068 13.3219C14.2106 13.0166 14.1608 12.6799 13.973 12.4177C13.7852 12.1555 13.4825 12 13.16 12V13ZM12.5 12C11.9477 12 11.5 12.4477 11.5 13C11.5 13.5523 11.9477 14 12.5 14V12ZM8.70557 3.55279C8.45858 4.04676 8.65881 4.64744 9.15279 4.89443C9.64677 5.14142 10.2474 4.94119 10.4944 4.44721L8.70557 3.55279ZM22.8252 8.11833L23.4712 7.355L22.8252 8.11833ZM22.3673 9.35709L21.6496 8.66073L22.3673 9.35709ZM23.0011 8.53397L23.9988 8.6019L23.0011 8.53397ZM10.746 2.02733L11.0721 2.97267L10.746 2.02733ZM10.5592 2.14279L9.85944 1.42837L10.5592 2.14279ZM11.0944 3H16.8558V1H11.0944V3ZM15.9198 1.64808L13.664 7.64808L15.536 8.35192L17.7919 2.35192L15.9198 1.64808ZM14.6 9H21.7931V7H14.6V9ZM21.6496 8.66073L9.38231 21.3036L10.8177 22.6964L23.085 10.0535L21.6496 8.66073ZM5 15.2C7.76515 15.2 10 12.9093 10 10.15H8C8 11.8307 6.63485 13.2 5 13.2V15.2ZM10 10.15C10 8.62598 9.24072 7.26083 7.92213 6.18513L6.65787 7.73487C7.61928 8.51917 8 9.35402 8 10.15H10ZM7.92213 6.18513C6.95318 5.39468 6.22292 4.21559 5.98058 3.00388L4.01942 3.39612C4.35708 5.08441 5.34682 6.66533 6.65787 7.73487L7.92213 6.18513ZM4.01942 3.00388C3.77579 4.22205 3.05247 5.4054 2.0853 6.17913L3.3347 7.74087C4.66753 6.6746 5.64421 5.07795 5.98058 3.39612L4.01942 3.00388ZM2.0853 6.17913C0.74214 7.25366 0 8.64396 0 10.15H2C2 9.35604 2.37786 8.50634 3.3347 7.74087L2.0853 6.17913ZM0 10.15C0 12.9093 2.23485 15.2 5 15.2V13.2C3.36515 13.2 2 11.8307 2 10.15H0ZM11.0468 22.3219L14.1068 13.3219L12.2132 12.6781L9.15323 21.6781L11.0468 22.3219ZM13.16 12H12.5V14H13.16V12ZM10.4944 4.44721L11.2733 2.88944L9.48446 1.99502L8.70557 3.55279L10.4944 4.44721ZM21.7931 9C21.9443 9 22.0655 9.00003 22.1694 9.00172C22.2742 9.00342 22.3436 9.00662 22.3912 9.01085C22.4415 9.01533 22.4385 9.01868 22.4077 9.00964C22.373 8.9995 22.2802 8.96716 22.1792 8.88167L23.4712 7.355C23.1466 7.08027 22.7591 7.03569 22.5685 7.01873C22.3473 6.99904 22.0707 7 21.7931 7V9ZM23.085 10.0535C23.2783 9.85423 23.4715 9.65644 23.6115 9.48397C23.732 9.33537 23.9699 9.02618 23.9988 8.6019L22.0034 8.46603C22.0124 8.334 22.0538 8.24488 22.0706 8.21297C22.0856 8.18452 22.0901 8.18473 22.0583 8.22397C22.0282 8.26103 21.9821 8.31308 21.9104 8.38947C21.8393 8.46522 21.7549 8.55225 21.6496 8.66073L23.085 10.0535ZM22.1792 8.88167C22.0579 8.77896 21.9926 8.62466 22.0034 8.46603L23.9988 8.6019C24.0312 8.12603 23.8353 7.66312 23.4712 7.355L22.1792 8.88167ZM11.0944 1C10.9874 1 10.6954 0.986953 10.4199 1.08198L11.0721 2.97267C11.0542 2.97883 11.0369 2.98391 11.0205 2.98804C11.0042 2.99215 10.9898 2.99504 10.978 2.99708C10.9551 3.00101 10.9419 3.00166 10.9449 3.00148C10.946 3.0014 10.9499 3.00119 10.9573 3.00096C10.9648 3.00072 10.9746 3.00051 10.9876 3.00035C11.0007 3.00019 11.0158 3.0001 11.0339 3.00005C11.0521 3 11.0717 3 11.0944 3V1ZM11.2733 2.88944C11.2835 2.8691 11.2923 2.85155 11.3004 2.8353C11.3086 2.81915 11.3154 2.80571 11.3214 2.79409C11.3274 2.78248 11.3319 2.77381 11.3355 2.76726C11.339 2.76071 11.3409 2.75735 11.3415 2.75632C11.343 2.75375 11.3365 2.76529 11.3228 2.784C11.3156 2.79369 11.3066 2.80523 11.2957 2.81798C11.2846 2.83081 11.2724 2.844 11.2589 2.85721L9.85944 1.42837C9.65123 1.6323 9.5323 1.89933 9.48446 1.99502L11.2733 2.88944ZM10.4199 1.08198C10.2097 1.15448 10.0183 1.2728 9.85944 1.42837L11.2589 2.85721C11.2059 2.90907 11.1421 2.94851 11.0721 2.97267L10.4199 1.08198Z"/></g><defs><clipPath id="clip0_3461_12327"><rect width="24" height="24" fill="currentColor"/></clipPath></defs></symbol>
  <symbol id="electric" viewBox="0 0 24 24" focusable="false" fill="none"><path stroke="currentColor" stroke-linecap="round" stroke-linejoin="round" stroke-width="2" d="M14.2495 2H8.49395C8.31447 2 8.22473 2 8.14551 2.02733C8.07544 2.05149 8.01163 2.09093 7.95868 2.14279C7.89881 2.20143 7.85868 2.2817 7.77841 2.44223L3.57841 10.8422C3.38673 11.2256 3.29089 11.4173 3.31391 11.5731C3.33401 11.7091 3.40927 11.8309 3.52197 11.9097C3.65104 12 3.86534 12 4.29395 12H10.4995L7.49953 22L19.6926 9.35531C20.104 8.9287 20.3097 8.7154 20.3217 8.53288C20.3321 8.37446 20.2667 8.22049 20.1454 8.11803C20.0057 8 19.7094 8 19.1167 8H11.9995L14.2495 2Z"/></symbol>
  <symbol id="trash" viewBox="0 0 24 24" focusable="false" fill="none"><path d="M3 6H5H21" stroke="currentColor" stroke-width="2" stroke-linecap="round" stroke-linejoin="round"></path><path d="M20 6C20 5.44772 19.5523 5 19 5C18.4477 5 18 5.44772 18 6H20ZM6 6C6 5.44772 5.55228 5 5 5C4.44772 5 4 5.44772 4 6H6ZM7 6C7 6.55228 7.44772 7 8 7C8.55228 7 9 6.55228 9 6H7ZM15 6C15 6.55228 15.4477 7 16 7C16.5523 7 17 6.55228 17 6H15ZM18 6V20H20V6H18ZM18 20C18 20.5523 17.5523 21 17 21V23C18.6569 23 20 21.6569 20 20H18ZM17 21H7V23H17V21ZM7 21C6.44772 21 6 20.5523 6 20H4C4 21.6569 5.34315 23 7 23V21ZM6 20V6H4V20H6ZM9 6V4H7V6H9ZM9 4C9 3.44772 9.44772 3 10 3V1C8.34315 1 7 2.34315 7 4H9ZM10 3H14V1H10V3ZM14 3C14.5523 3 15 3.44772 15 4H17C17 2.34315 15.6569 1 14 1V3ZM15 4V6H17V4H15Z" fill="currentColor"></path><path d="M10 11V17" stroke="currentColor" stroke-width="2" stroke-linecap="round" stroke-linejoin="round"></path><path d="M14 11V17" stroke="currentColor" stroke-width="2" stroke-linecap="round" stroke-linejoin="round"></path></symbol>
  <symbol id="bell" viewBox="0 0 24 24" fill="none" focusable="false"><path stroke="currentColor" stroke-linecap="round" stroke-linejoin="round" stroke-width="2" d="M6 8C6 6.4087 6.63214 4.88258 7.75736 3.75736 8.88258 2.63214 10.4087 2 12 2 13.5913 2 15.1174 2.63214 16.2426 3.75736 17.3679 4.88258 18 6.4087 18 8 18 15 21 17 21 17H3C3 17 6 15 6 8ZM10.3 21C10.4674 21.3044 10.7134 21.5583 11.0125 21.7352 11.3115 21.912 11.6526 22.0053 12 22.0053 12.3474 22.0053 12.6885 21.912 12.9875 21.7352 13.2866 21.5583 13.5326 21.3044 13.7 21"/></symbol>  
  <symbol id="image" viewBox="0 0 24 24" focusable="false" fill="none"><path d="M1.5 8C1.5 6.61929 2.61929 5.5 4 5.5L16 5.5C17.3807 5.5 18.5 6.61929 18.5 8V18C18.5 19.3807 17.3807 20.5 16 20.5H4C2.61929 20.5 1.5 19.3807 1.5 18V8Z" stroke="currentColor" stroke-width="1.5" stroke-linecap="round" stroke-linejoin="round"></path><path d="M4.5 3.5V3.5C4.5 2.39543 5.39543 1.5 6.5 1.5H20C21.3807 1.5 22.5 2.61929 22.5 4V15.5C22.5 16.6046 21.6046 17.5 20.5 17.5V17.5" stroke="currentColor" stroke-width="1.5" stroke-linecap="round" stroke-linejoin="round"></path><path d="M1.5 17L5.06747 11.4762C5.83417 10.289 7.55682 10.2499 8.37663 11.401L11.1495 15.2946C11.512 15.8035 12.2471 15.8591 12.682 15.4106L13.2896 14.784C14.0525 13.997 15.3067 13.9708 16.1019 14.7252L18.5 17" stroke="currentColor" stroke-width="1.5" stroke-linecap="round" stroke-linejoin="round"></path><circle cx="13.5" cy="9.5" r="1.5" fill="currentColor"></circle></symbol>
  <symbol id="location" viewBox="0 0 24 24" focusable="false" fill="none"><path stroke="currentColor" stroke-linecap="round" stroke-linejoin="round" stroke-width="2" d="M20 10C20 16 12 22 12 22C12 22 4 16 4 10C4 7.87827 4.84285 5.84344 6.34315 4.34315C7.84344 2.84285 9.87827 2 12 2C14.1217 2 16.1566 2.84285 17.6569 4.34315C19.1571 5.84344 20 7.87827 20 10Z"/><path stroke="currentColor" stroke-linecap="round" stroke-linejoin="round" stroke-width="2" d="M12 13C13.6569 13 15 11.6569 15 10C15 8.34315 13.6569 7 12 7C10.3431 7 9 8.34315 9 10C9 11.6569 10.3431 13 12 13Z"/></symbol>
  <symbol id="emissions" viewBox="0 0 24 24" focusable="false" fill="none"><path stroke="currentColor" stroke-linecap="round" stroke-linejoin="round" stroke-width="2" d="M2.06321 9.08256C2.20287 8.02962 2.58031 7.02226 3.16694 6.1368C3.75358 5.25133 4.53403 4.51098 5.44918 3.97182C6.36433 3.43265 7.39018 3.10882 8.44902 3.02484C9.50786 2.94087 10.5719 3.09895 11.5606 3.48712C12.5493 3.8753 13.4367 4.48337 14.1556 5.2653C14.8745 6.04723 15.406 6.9825 15.7099 8.00026H17.4998C18.4654 8.00015 19.4053 8.31059 20.1808 8.8857C20.9564 9.46082 21.5264 10.2701 21.8066 11.1941C22.0869 12.118 22.0625 13.1076 21.7372 14.0166M19.5001 18C19.5 17.25 20.25 16.5 21.0001 16.5C21.7502 16.5 22.5 16.939 22.5 18C22.5 19.5 19.5001 20.55 19.5001 21.75H22.5001M7.90165 13.0983C7.3772 12.5739 6.70902 12.2167 5.98159 12.0721C5.25416 11.9274 4.50016 12.0016 3.81494 12.2855C3.12971 12.5693 2.54404 13.0499 2.13199 13.6666C1.71993 14.2833 1.5 15.0083 1.5 15.75C1.5 16.4917 1.71993 17.2167 2.13199 17.8334C2.54404 18.4501 3.12971 18.9307 3.81494 19.2145C4.50016 19.4984 5.25416 19.5726 5.98159 19.4279C6.70902 19.2832 7.3772 18.9261 7.90165 18.4017M16.1517 13.0983C16.4999 13.4466 16.7761 13.86 16.9645 14.3149C17.153 14.7699 17.25 15.2575 17.25 15.75C17.25 16.2425 17.153 16.7301 16.9645 17.1851C16.7761 17.64 16.4999 18.0534 16.1517 18.4017C15.8034 18.7499 15.39 19.0261 14.9351 19.2145C14.4801 19.403 13.9925 19.5 13.5 19.5C13.0075 19.5 12.5199 19.403 12.0649 19.2145C11.61 19.0261 11.1966 18.7499 10.8483 18.4017C10.5001 18.0534 10.2239 17.64 10.0355 17.1851C9.847 16.7301 9.75 16.2425 9.75 15.75C9.75 15.2575 9.847 14.7699 10.0355 14.3149C10.2239 13.86 10.5001 13.4466 10.8483 13.0983C11.1966 12.7501 11.61 12.4739 12.0649 12.2855C12.5199 12.097 13.0075 12 13.5 12C13.9925 12 14.4801 12.097 14.9351 12.2855C15.39 12.4739 15.8034 12.7501 16.1517 13.0983Z"/></symbol>
  <symbol id="drive" viewBox="0 0 24 24" focusable="false" fill="none"><path stroke="currentColor" stroke-linecap="round" stroke-width="2" d="M4 12H20M19 8V16M19 8H20.5C21.3284 8 22 7.32843 22 6.5V6.5C22 5.67157 21.3284 5 20.5 5H17.5C16.6716 5 16 5.67157 16 6.5V6.5C16 7.32843 16.6716 8 17.5 8H19ZM19 16H20.5C21.3284 16 22 16.6716 22 17.5V17.5C22 18.3284 21.3284 19 20.5 19H17.5C16.6716 19 16 18.3284 16 17.5V17.5C16 16.6716 16.6716 16 17.5 16H19ZM5 8V16M5 8H6.5C7.32843 8 8 7.32843 8 6.5V6.5C8 5.67157 7.32843 5 6.5 5H3.5C2.67157 5 2 5.67157 2 6.5V6.5C2 7.32843 2.67157 8 3.5 8H5ZM5 16H3.5C2.67157 16 2 16.6716 2 17.5V17.5C2 18.3284 2.67157 19 3.5 19H6.5C7.32843 19 8 18.3284 8 17.5V17.5C8 16.6716 7.32843 16 6.5 16H5Z"/></symbol>
  <symbol id="consumption" viewBox="0 0 24 24" focusable="false" fill="none"><path stroke="currentColor" stroke-linecap="round" stroke-linejoin="round" stroke-width="2" d="M3.34 19.0004C2.46222 17.4803 2.00007 15.7558 2 14.0004C1.99993 12.245 2.46195 10.5205 3.33962 9.00022C4.21729 7.47997 5.47967 6.21753 6.99989 5.33981C8.52011 4.46209 10.2446 4 12 4C13.7554 4 15.4799 4.46209 17.0001 5.33981C18.5203 6.21753 19.7827 7.47997 20.6604 9.00022C21.538 10.5205 22.0001 12.245 22 14.0004C21.9999 15.7558 21.5378 17.4803 20.66 19.0004"/><path stroke="currentColor" stroke-linecap="round" stroke-linejoin="round" stroke-width="2" d="M14.0002 14.0005C14.0002 15.1051 13.1048 16.0005 12.0002 16.0005 10.8957 16.0005 10.0002 15.1051 10.0002 14.0005 10.0002 12.896 10.8957 12.0005 12.0002 12.0005 13.1048 12.0005 14.0002 12.896 14.0002 14.0005ZM16 10 14 12"/></symbol>
  <symbol id="user" viewBox="0 0 24 24" focusable="false" fill="none"><path fill-rule="evenodd" clip-rule="evenodd" d="M12 10C14.2091 10 16 8.20914 16 6C16 3.79086 14.2091 2 12 2C9.79086 2 8 3.79086 8 6C8 8.20914 9.79086 10 12 10Z" stroke="currentColor" stroke-width="2" stroke-linecap="round" stroke-linejoin="round"></path><path fill-rule="evenodd" clip-rule="evenodd" d="M19 22C20.1046 22 21.023 21.0932 20.7805 20.0156C19.8768 15.9998 16.2887 13 12 13C7.71127 13 4.12318 15.9998 3.21949 20.0156C2.97699 21.0932 3.89543 22 5 22H19Z" stroke="currentColor" stroke-width="2" stroke-linecap="round" stroke-linejoin="round"></path></symbol>
  <symbol id="file" viewBox="0 0 24 24" focusable="false" fill="none"><path stroke="currentColor" stroke-linecap="round" stroke-linejoin="round" stroke-width="2" d="M14.5 2H6C5.46957 2 4.96086 2.21071 4.58579 2.58579C4.21071 2.96086 4 3.46957 4 4V20C4 20.5304 4.21071 21.0391 4.58579 21.4142C4.96086 21.7893 5.46957 22 6 22H18C18.5304 22 19.0391 21.7893 19.4142 21.4142C19.7893 21.0391 20 20.5304 20 20V7.5L14.5 2Z"/><path stroke="currentColor" stroke-linecap="round" stroke-linejoin="round" stroke-width="2" d="M14 2V8H20M16 13H8M16 17H8M10 9H8"/></symbol>
  <symbol id="arrow-right" viewBox="0 0 24 24" focusable="false" fill="none"><path d="M2 11C1.44771 11 0.999999 11.4477 0.999999 12C0.999999 12.5523 1.44771 13 2 13L2 11ZM22 12L22.7071 12.7071C22.8946 12.5195 23 12.2652 23 12C23 11.7348 22.8946 11.4804 22.7071 11.2929L22 12ZM14.2929 18.2929C13.9024 18.6834 13.9024 19.3166 14.2929 19.7071C14.6834 20.0976 15.3166 20.0976 15.7071 19.7071L14.2929 18.2929ZM15.7071 4.29287C15.3166 3.90235 14.6834 3.90235 14.2929 4.29287C13.9024 4.6834 13.9024 5.31656 14.2929 5.70709L15.7071 4.29287ZM2 13L22 13L22 11L2 11L2 13ZM21.2929 11.2929L14.2929 18.2929L15.7071 19.7071L22.7071 12.7071L21.2929 11.2929ZM22.7071 11.2929L15.7071 4.29287L14.2929 5.70709L21.2929 12.7071L22.7071 11.2929Z" fill="currentColor"></path></symbol>
  <symbol id="circle-user" viewBox="0 0 24 24" focusable="false"><path fill="currentColor" d="M5.85 17.1C6.7 16.45 7.65 15.9373 8.7 15.562C9.75 15.1873 10.85 15 12 15C13.15 15 14.25 15.1873 15.3 15.562C16.35 15.9373 17.3 16.45 18.15 17.1C18.7333 16.4167 19.1877 15.6417 19.513 14.775C19.8377 13.9083 20 12.9833 20 12C20 9.78333 19.221 7.89567 17.663 6.337C16.1043 4.779 14.2167 4 12 4C9.78333 4 7.896 4.779 6.338 6.337C4.77933 7.89567 4 9.78333 4 12C4 12.9833 4.16267 13.9083 4.488 14.775C4.81267 15.6417 5.26667 16.4167 5.85 17.1ZM12 13C11.0167 13 10.1873 12.6627 9.512 11.988C8.83733 11.3127 8.5 10.4833 8.5 9.5C8.5 8.51667 8.83733 7.68733 9.512 7.012C10.1873 6.33733 11.0167 6 12 6C12.9833 6 13.8127 6.33733 14.488 7.012C15.1627 7.68733 15.5 8.51667 15.5 9.5C15.5 10.4833 15.1627 11.3127 14.488 11.988C13.8127 12.6627 12.9833 13 12 13ZM12 22C10.6167 22 9.31667 21.7373 8.1 21.212C6.88333 20.6873 5.825 19.975 4.925 19.075C4.025 18.175 3.31267 17.1167 2.788 15.9C2.26267 14.6833 2 13.3833 2 12C2 10.6167 2.26267 9.31667 2.788 8.1C3.31267 6.88333 4.025 5.825 4.925 4.925C5.825 4.025 6.88333 3.31233 8.1 2.787C9.31667 2.26233 10.6167 2 12 2C13.3833 2 14.6833 2.26233 15.9 2.787C17.1167 3.31233 18.175 4.025 19.075 4.925C19.975 5.825 20.6873 6.88333 21.212 8.1C21.7373 9.31667 22 10.6167 22 12C22 13.3833 21.7373 14.6833 21.212 15.9C20.6873 17.1167 19.975 18.175 19.075 19.075C18.175 19.975 17.1167 20.6873 15.9 21.212C14.6833 21.7373 13.3833 22 12 22ZM12 20C12.8833 20 13.7167 19.871 14.5 19.613C15.2833 19.3543 16 18.9833 16.65 18.5C16 18.0167 15.2833 17.6457 14.5 17.387C13.7167 17.129 12.8833 17 12 17C11.1167 17 10.2833 17.129 9.5 17.387C8.71667 17.6457 8 18.0167 7.35 18.5C8 18.9833 8.71667 19.3543 9.5 19.613C10.2833 19.871 11.1167 20 12 20ZM12 11C12.4333 11 12.7917 10.8583 13.075 10.575C13.3583 10.2917 13.5 9.93333 13.5 9.5C13.5 9.06667 13.3583 8.70833 13.075 8.425C12.7917 8.14167 12.4333 8 12 8C11.5667 8 11.2083 8.14167 10.925 8.425C10.6417 8.70833 10.5 9.06667 10.5 9.5C10.5 9.93333 10.6417 10.2917 10.925 10.575C11.2083 10.8583 11.5667 11 12 11Z"></path></symbol>
  <symbol id="heart-filled" viewBox="0 0 24 24" fill="none"><path fill="currentColor" fill-rule="evenodd" d="M2.90381 3.90381C4.12279 2.68482 5.77609 2 7.5 2C8.48018 2 9.37318 2.14018 10.2468 2.52068C10.8597 2.78762 11.4321 3.15937 12 3.63935C12.5679 3.15937 13.1403 2.78762 13.7532 2.52068C14.6268 2.14018 15.5198 2 16.5 2C18.2239 2 19.8772 2.68482 21.0962 3.90381C22.3152 5.12279 23 6.77609 23 8.5C23 11.2418 21.1906 13.2531 19.7035 14.7107L12.7071 21.7071C12.3166 22.0976 11.6834 22.0976 11.2929 21.7071L4.29885 14.7131C2.79442 13.258 1 11.2494 1 8.5C1 6.77609 1.68482 5.12279 2.90381 3.90381Z" clip-rule="evenodd"/></symbol>
  <symbol id="arrow-right-from-bracket" viewBox="0 0 24 24" focusable="false" fill="none"><path d="M16 17L21 12M21 12L16 7M21 12H9M12 17C12 17.2956 12 17.4434 11.989 17.5714C11.8748 18.902 10.8949 19.9968 9.58503 20.2573C9.45903 20.2823 9.31202 20.2987 9.01835 20.3313L7.99694 20.4448C6.46248 20.6153 5.69521 20.7005 5.08566 20.5055C4.27293 20.2454 3.60942 19.6515 3.26118 18.8725C3 18.2882 3 17.5162 3 15.9723V8.0277C3 6.48377 3 5.7118 3.26118 5.12752C3.60942 4.34848 4.27293 3.7546 5.08566 3.49453C5.69521 3.29947 6.46246 3.38472 7.99694 3.55522L9.01835 3.66871C9.31212 3.70135 9.45901 3.71767 9.58503 3.74273C10.8949 4.00316 11.8748 5.09804 11.989 6.42861C12 6.55663 12 6.70442 12 7" stroke="currentColor" stroke-width="2" stroke-linecap="round" stroke-linejoin="round"></path></symbol>
  <symbol id="heart" viewBox="0 0 24 24" focusable="false" fill="none"><path stroke="currentColor" stroke-linecap="round" stroke-linejoin="round" stroke-width="2" d="M19 14C20.49 12.54 22 10.79 22 8.5C22 7.04131 21.4205 5.64236 20.3891 4.61091C19.3576 3.57946 17.9587 3 16.5 3C14.74 3 13.5 3.5 12 5C10.5 3.5 9.26 3 7.5 3C6.04131 3 4.64236 3.57946 3.61091 4.61091C2.57946 5.64236 2 7.04131 2 8.5C2 10.8 3.5 12.55 5 14L12 21L19 14Z"/></symbol>

  <symbol id="sliders" viewBox="0 0 20 20" focusable="false" fill="none"><path d="M16.6667 5.83325H10" stroke="currentColor" stroke-width="1.67" stroke-linecap="round" stroke-linejoin="round"></path><path d="M4.99998 5.83325H3.33331" stroke="currentColor" stroke-width="1.67" stroke-linecap="round" stroke-linejoin="round"></path><path d="M9.99998 14.1667H3.33331" stroke="currentColor" stroke-width="1.67" stroke-linecap="round" stroke-linejoin="round"></path><path d="M16.6667 14.1667H15" stroke="currentColor" stroke-width="1.67" stroke-linecap="round" stroke-linejoin="round"></path><path d="M12.5 16.6667C13.8807 16.6667 15 15.5475 15 14.1667C15 12.786 13.8807 11.6667 12.5 11.6667C11.1193 11.6667 10 12.786 10 14.1667C10 15.5475 11.1193 16.6667 12.5 16.6667Z" stroke="currentColor" stroke-width="1.67" stroke-linecap="round" stroke-linejoin="round"></path><path d="M7.5 8.33325C8.88071 8.33325 10 7.21396 10 5.83325C10 4.45254 8.88071 3.33325 7.5 3.33325C6.11929 3.33325 5 4.45254 5 5.83325C5 7.21396 6.11929 8.33325 7.5 8.33325Z" stroke="currentColor" stroke-width="1.67" stroke-linecap="round" stroke-linejoin="round"></path></symbol>
  <symbol id="check" viewBox="0 0 20 20" fill="none" focusable="false"><path d="M6.07227 10.0799L8.63747 12.6191L13.9294 7.38098" stroke="white" stroke-width="2" stroke-linecap="round" stroke-linejoin="round"/></symbol>  

  <symbol id="xmark" viewBox="0 0 16 16" focusable="false"><path d="M3 3.00005L12.9999 13M13 3L3.0001 13" stroke="currentColor" stroke-width="2" stroke-linecap="round" stroke-linejoin="round"></path></symbol>
  <symbol id="unlock" viewBox="0 0 16 16" focusable="false"><path fill-rule="evenodd" clip-rule="evenodd" d="M2.75 8C2.75 6.75736 3.75736 5.75 5 5.75H11C12.2426 5.75 13.25 6.75736 13.25 8V13C13.25 14.2426 12.2426 15.25 11 15.25H5C3.75736 15.25 2.75 14.2426 2.75 13V8ZM5 7.25C4.58579 7.25 4.25 7.58579 4.25 8V13C4.25 13.4142 4.58579 13.75 5 13.75H11C11.4142 13.75 11.75 13.4142 11.75 13V8C11.75 7.58579 11.4142 7.25 11 7.25H5Z" fill="currentColor"></path><path fill-rule="evenodd" clip-rule="evenodd" d="M6.25002 3.50343C6.25001 3.50343 6.25002 3.50367 6.25002 3.50343L6.25 6.5C6.25 6.91422 5.91421 7.25 5.5 7.25C5.08578 7.25 4.75 6.91421 4.75 6.5L4.75002 3.50002C4.75002 3.44918 4.75332 2.66153 5.23206 1.86383C5.74742 1.0051 6.74617 0.25 8.50006 0.25C10.2542 0.25 11.253 1.0053 11.7683 1.86409C12.0114 2.26925 12.13 2.66837 12.1888 2.96224C12.2185 3.11053 12.2338 3.23623 12.2417 3.32848C12.2457 3.37474 12.2478 3.41298 12.249 3.4419C12.2495 3.45638 12.2499 3.46855 12.2501 3.47827L12.2503 3.491L12.2503 3.49596L12.2503 3.49808C12.2503 3.49854 12.2503 3.49996 11.5003 3.5L12.2503 3.49996C12.2503 3.91417 11.9146 4.24998 11.5003 4.25C11.0883 4.25002 10.7539 3.91778 10.7503 3.50657C10.7503 3.50471 10.7503 3.50284 10.7503 3.50098M10.7503 3.50098L10.7503 3.50313L10.7503 3.50537L10.7503 3.50657C10.7503 3.50668 10.7503 3.50722 10.7503 3.50657C10.7503 3.50471 10.7503 3.50284 10.7503 3.50098C10.75 3.49327 10.7491 3.47878 10.7472 3.45667C10.7434 3.4122 10.7352 3.3426 10.718 3.25651C10.683 3.08163 10.614 2.85575 10.4821 2.63591C10.2474 2.2447 9.74603 1.75 8.50006 1.75C7.25422 1.75 6.75295 2.24459 6.51822 2.63571C6.26051 3.06512 6.25038 3.50344 6.25002 3.50343" fill="currentColor"></path><path fill-rule="evenodd" clip-rule="evenodd" d="M7.25 11.5L7.25 9.5C7.25 9.08579 7.58579 8.75 8 8.75C8.41421 8.75 8.75 9.08579 8.75 9.5L8.75 11.5C8.75 11.9142 8.41421 12.25 8 12.25C7.58579 12.25 7.25 11.9142 7.25 11.5Z" fill="currentColor"></path></symbol>
  <symbol id="filters" viewBox="0 0 16 16" focusable="false"><path fill-rule="evenodd" clip-rule="evenodd" d="M12.3613 4.5C12.3613 4.08579 12.6971 3.75 13.1113 3.75L15 3.75C15.4142 3.75 15.75 4.08579 15.75 4.5C15.75 4.91421 15.4142 5.25 15 5.25L13.1113 5.25C12.6971 5.25 12.3613 4.91421 12.3613 4.5Z" fill="currentColor"></path><path fill-rule="evenodd" clip-rule="evenodd" d="M0.25 4.5C0.25 4.08579 0.585786 3.75 1 3.75L9.5 3.75C9.91421 3.75 10.25 4.08579 10.25 4.5C10.25 4.91421 9.91421 5.25 9.5 5.25L1 5.25C0.585786 5.25 0.25 4.91421 0.25 4.5Z" fill="currentColor"></path><path fill-rule="evenodd" clip-rule="evenodd" d="M12.5 7.25C12.0858 7.25 11.75 6.91421 11.75 6.5L11.75 2.5C11.75 2.08579 12.0858 1.75 12.5 1.75C12.9142 1.75 13.25 2.08579 13.25 2.5L13.25 6.5C13.25 6.91421 12.9142 7.25 12.5 7.25Z" fill="currentColor"></path><path fill-rule="evenodd" clip-rule="evenodd" d="M4.25 11.5C4.25 11.0858 3.91421 10.75 3.5 10.75L1 10.75C0.585786 10.75 0.25 11.0858 0.25 11.5C0.25 11.9142 0.585786 12.25 1 12.25L3.5 12.25C3.91421 12.25 4.25 11.9142 4.25 11.5Z" fill="currentColor"></path><path fill-rule="evenodd" clip-rule="evenodd" d="M15.75 11.5C15.75 11.0858 15.4142 10.75 15 10.75L6.5 10.75C6.08579 10.75 5.75 11.0858 5.75 11.5C5.75 11.9142 6.08579 12.25 6.5 12.25L15 12.25C15.4142 12.25 15.75 11.9142 15.75 11.5Z" fill="currentColor"></path><path fill-rule="evenodd" clip-rule="evenodd" d="M6.5 14.25C6.91421 14.25 7.25 13.9142 7.25 13.5L7.25 9.5C7.25 9.08579 6.91421 8.75 6.5 8.75C6.08579 8.75 5.75 9.08579 5.75 9.5L5.75 13.5C5.75 13.9142 6.08579 14.25 6.5 14.25Z" fill="currentColor"></path></symbol>
  <symbol id="bookmark-plus" viewBox="0 0 16 16" fill="none"><g clip-path="url(#clip0_3476_27185)"><path stroke="currentColor" stroke-linecap="round" stroke-linejoin="round" stroke-width="1.5" d="M13.6403 15.2518 8 12.0288 2.35968 15.2518V2.35967C2.35968 1.93227 2.52946 1.52238 2.83168 1.22016 3.1339.917938 3.5438.748154 3.9712.748154H12.0288C12.4562.748154 12.8661.917938 13.1683 1.22016 13.4705 1.52238 13.6403 1.93227 13.6403 2.35967V15.2518ZM8 4.25V8.75M10.25 6.5H5.75"/></g><defs><clipPath id="clip0_3476_27185"><rect width="16" height="16" fill="currentColor"/></clipPath></defs></symbol>
  <symbol id="bookmark" viewBox="0 0 16 16" focusable="false"><path d="M3 2.5C3 1.94772 3.44772 1.5 4 1.5L12 1.5C12.5523 1.5 13 1.94772 13 2.5V14L8 10L3 14V2.5Z" stroke="currentColor" stroke-width="1.5" stroke-linecap="round" stroke-linejoin="round" fill="none"></path></symbol>
  <symbol id="share" viewBox="0 0 16 16" focusable="false"><path fill-rule="evenodd" clip-rule="evenodd" d="M7.5286 0.861949C7.78895 0.6016 8.21106 0.6016 8.4714 0.861949L11.1381 3.52862C11.3984 3.78897 11.3984 4.21108 11.1381 4.47142C10.8777 4.73177 10.4556 4.73177 10.1953 4.47142L8.66667 2.94283V10C8.66667 10.3682 8.36819 10.6667 8 10.6667C7.63181 10.6667 7.33333 10.3682 7.33333 10V2.94283L5.80474 4.47142C5.54439 4.73177 5.12228 4.73177 4.86193 4.47142C4.60158 4.21108 4.60158 3.78897 4.86193 3.52862L7.5286 0.861949ZM2.66667 7.33335C3.03486 7.33335 3.33333 7.63183 3.33333 8.00002V13.3334C3.33333 13.5102 3.40357 13.6797 3.5286 13.8048C3.65362 13.9298 3.82319 14 4 14H12C12.1768 14 12.3464 13.9298 12.4714 13.8048C12.5964 13.6797 12.6667 13.5102 12.6667 13.3334V8.00002C12.6667 7.63183 12.9651 7.33335 13.3333 7.33335C13.7015 7.33335 14 7.63183 14 8.00002V13.3334C14 13.8638 13.7893 14.3725 13.4142 14.7476C13.0391 15.1226 12.5304 15.3334 12 15.3334H4C3.46957 15.3334 2.96086 15.1226 2.58579 14.7476C2.21071 14.3725 2 13.8638 2 13.3334V8.00002C2 7.63183 2.29848 7.33335 2.66667 7.33335Z" fill="currentColor"></path></symbol>
  <symbol id="angle-left" viewBox="0 0 16 16" focusable="false"><path fill-rule="evenodd" clip-rule="evenodd" d="M11.7071 1.29289C12.0976 1.68342 12.0976 2.31658 11.7071 2.70711L6.41421 8L11.7071 13.2929C12.0976 13.6834 12.0976 14.3166 11.7071 14.7071C11.3166 15.0976 10.6834 15.0976 10.2929 14.7071L4.29289 8.70711C3.90237 8.31658 3.90237 7.68342 4.29289 7.29289L10.2929 1.29289C10.6834 0.902368 11.3166 0.902368 11.7071 1.29289Z" fill="currentColor"></path></symbol>
  <symbol id="angle-down" viewBox="0 0 16 16" focusable="false"><path fill-rule="evenodd" clip-rule="evenodd" d="M3.29289 5.29289C3.68342 4.90237 4.31658 4.90237 4.70711 5.29289L8 8.58579L11.2929 5.29289C11.6834 4.90237 12.3166 4.90237 12.7071 5.29289C13.0976 5.68342 13.0976 6.31658 12.7071 6.70711L8.70711 10.7071C8.51957 10.8946 8.26522 11 8 11C7.73478 11 7.48043 10.8946 7.29289 10.7071L3.29289 6.70711C2.90237 6.31658 2.90237 5.68342 3.29289 5.29289Z" fill="currentColor"></path></symbol>
  <symbol id="order" viewBox="0 0 16 16" focusable="false" fill="none"><path d="M3.5 11.5H9.86039C10.8138 11.5 11.6346 10.8271 11.8216 9.89223L13.2588 2.70583C13.3991 2.00469 14.0148 1.5 14.7298 1.5C14.8242 1.5 14.9155 1.5 15 1.5" stroke="currentColor" stroke-width="1.5" stroke-linecap="round" stroke-linejoin="round"></path><path d="M10.5 3.5H2.34403C1.67417 3.5 1.19372 4.14574 1.3862 4.78735L2.2862 7.78735C2.4131 8.21033 2.80242 8.5 3.24403 8.5H9.5" stroke="currentColor" stroke-width="1.5" stroke-linecap="round" stroke-linejoin="round"></path><circle cx="4.75" cy="14.25" r="0.75" stroke="currentColor" stroke-width="1.5" stroke-linecap="round" stroke-linejoin="round"></circle><circle cx="10.75" cy="14.25" r="0.75" stroke="currentColor" stroke-width="1.5" stroke-linecap="round" stroke-linejoin="round"></circle></symbol>
  <symbol id="circle-plus" viewBox="0 0 16 16" focusable="false"><path fill-rule="evenodd" clip-rule="evenodd" d="M8 16C12.4183 16 16 12.4183 16 8C16 3.58172 12.4183 0 8 0C3.58172 0 0 3.58172 0 8C0 12.4183 3.58172 16 8 16Z" fill="currentColor"></path><path fill-rule="evenodd" clip-rule="evenodd" d="M8.75 4.57141C8.75 4.1572 8.41421 3.82141 8 3.82141C7.58579 3.82141 7.25 4.1572 7.25 4.57141V7.25H4.57153C4.15732 7.25 3.82153 7.58579 3.82153 8C3.82153 8.41421 4.15732 8.75 4.57153 8.75H7.25V11.4286C7.25 11.8428 7.58579 12.1786 8 12.1786C8.41421 12.1786 8.75 11.8428 8.75 11.4286V8.75H11.4287C11.8429 8.75 12.1787 8.41421 12.1787 8C12.1787 7.58579 11.8429 7.25 11.4287 7.25H8.75V4.57141Z" fill="white"></path></symbol>

  <symbol id="discount" viewBox="0 0 14 14" focusable="false"><path d="M12.5 10.5L7.25 5.25L5 7.5L1.25 3.75M12.5 10.5V6.5M12.5 10.5H8.5" stroke="currentColor" stroke-width="1.5" stroke-linecap="round" stroke-linejoin="round"></path></symbol>
  <symbol id="warning" viewBox="0 0 14 14" focusable="false"><path fill-rule="evenodd" clip-rule="evenodd" d="M7 0C10.866 0 14 3.13401 14 7C14 10.866 10.866 14 7 14C3.13401 14 0 10.866 0 7C0 3.13401 3.13401 0 7 0Z" fill="currentColor"></path><path d="M7 3.6749V6.6499" stroke="white" stroke-width="2" stroke-linecap="round" stroke-linejoin="round"></path><path d="M7.0438 10H6.9563" stroke="white" stroke-width="2" stroke-linecap="round" stroke-linejoin="round"></path></symbol>
  <symbol id="success" viewBox="0 0 14 14" focusable="false"><path fill-rule="evenodd" clip-rule="evenodd" d="M7 14C10.866 14 14 10.866 14 7C14 3.13401 10.866 0 7 0C3.13401 0 0 3.13401 0 7C0 10.866 3.13401 14 7 14Z" fill="currentColor"></path><path fill-rule="evenodd" clip-rule="evenodd" d="M10.5221 4.35274C10.7759 4.60658 10.7759 5.01813 10.5221 5.27197L6.58453 9.20947C6.46029 9.33371 6.29105 9.40236 6.11537 9.39978C5.93969 9.3972 5.77253 9.32361 5.652 9.19577L3.6523 7.075C3.40602 6.81381 3.41811 6.40243 3.6793 6.15616C3.94049 5.90988 4.35187 5.92197 4.59814 6.18316L6.13862 7.81691L9.60283 4.35273C9.85667 4.09889 10.2682 4.09889 10.5221 4.35274Z" fill="white"></path></symbol>
</svg>